<svg width="18" height="18" viewBox="0 0 18 18" fill="none" xmlns="http://www.w3.org/2000/svg">
<path d="M16.3125 7.875C16.3112 9.06807 15.8366 10.2119 14.993 11.0555C14.1494 11.8992 13.0055 12.3737 11.8125 12.375H3.60769L6.02292 14.7895C6.12847 14.8951 6.18777 15.0382 6.18777 15.1875C6.18777 15.3368 6.12847 15.4799 6.02292 15.5855C5.91738 15.691 5.77422 15.7503 5.62495 15.7503C5.47569 15.7503 5.33253 15.691 5.22699 15.5855L1.85199 12.2105C1.79969 12.1582 1.7582 12.0962 1.72989 12.0279C1.70158 11.9596 1.68701 11.8864 1.68701 11.8125C1.68701 11.7386 1.70158 11.6654 1.72989 11.5971C1.7582 11.5288 1.79969 11.4668 1.85199 11.4145L5.22699 8.03953C5.33253 7.93398 5.47569 7.87469 5.62495 7.87469C5.77422 7.87469 5.91738 7.93398 6.02292 8.03953C6.12847 8.14508 6.18777 8.28823 6.18777 8.4375C6.18777 8.58677 6.12847 8.72992 6.02292 8.83547L3.60769 11.25H11.8125C12.7076 11.25 13.566 10.8944 14.1989 10.2615C14.8319 9.62855 15.1875 8.77011 15.1875 7.875C15.1875 6.97989 14.8319 6.12145 14.1989 5.48851C13.566 4.85558 12.7076 4.5 11.8125 4.5H5.62495C5.47577 4.5 5.3327 4.44074 5.22721 4.33525C5.12172 4.22976 5.06245 4.08668 5.06245 3.9375C5.06245 3.78832 5.12172 3.64524 5.22721 3.53975C5.3327 3.43426 5.47577 3.375 5.62495 3.375H11.8125C13.0055 3.3763 14.1494 3.85083 14.993 4.69446C15.8366 5.53809 16.3112 6.68193 16.3125 7.875Z" fill="black"/>
</svg>
