<svg width="12" height="12" viewBox="0 0 12 12" fill="none" xmlns="http://www.w3.org/2000/svg">
<path d="M7.87507 10.5008C7.87507 10.6003 7.83556 10.6957 7.76524 10.766C7.69491 10.8363 7.59953 10.8758 7.50007 10.8758H4.50007C4.40061 10.8758 4.30523 10.8363 4.23491 10.766C4.16458 10.6957 4.12507 10.6003 4.12507 10.5008C4.12507 10.4014 4.16458 10.306 4.23491 10.2357C4.30523 10.1654 4.40061 10.1258 4.50007 10.1258H7.50007C7.59953 10.1258 7.69491 10.1654 7.76524 10.2357C7.83556 10.306 7.87507 10.4014 7.87507 10.5008ZM10.659 2.82835C10.2375 2.00459 9.60465 1.30767 8.82523 0.808974C8.78358 0.782372 8.73709 0.764263 8.68842 0.755688C8.63976 0.747114 8.58987 0.748243 8.54164 0.75901C8.49341 0.769778 8.44779 0.789971 8.40739 0.81843C8.36699 0.846889 8.33262 0.883052 8.30624 0.924841C8.27986 0.966629 8.26201 1.01322 8.2537 1.06193C8.24538 1.11064 8.24678 1.16052 8.25781 1.20869C8.26884 1.25686 8.28928 1.30237 8.31796 1.34262C8.34663 1.38286 8.38298 1.41704 8.42491 1.44319C9.09362 1.86858 9.63541 2.46624 9.99335 3.17335C10.0407 3.25882 10.1194 3.32246 10.2129 3.35073C10.3064 3.37899 10.4073 3.36966 10.494 3.32471C10.5807 3.27975 10.6465 3.20273 10.6773 3.11003C10.7081 3.01733 10.7015 2.91627 10.659 2.82835ZM1.67398 3.37585C1.74268 3.37582 1.81005 3.35692 1.86874 3.32121C1.92743 3.2855 1.97519 3.23435 2.00679 3.17335C2.36473 2.46624 2.90652 1.86858 3.57523 1.44319C3.61716 1.41704 3.65351 1.38286 3.68218 1.34262C3.71086 1.30237 3.7313 1.25686 3.74233 1.20869C3.75336 1.16052 3.75476 1.11064 3.74644 1.06193C3.73813 1.01322 3.72028 0.966629 3.6939 0.924841C3.66752 0.883052 3.63315 0.846889 3.59275 0.81843C3.55235 0.789971 3.50672 0.769778 3.4585 0.75901C3.41027 0.748243 3.36038 0.747114 3.31172 0.755688C3.26305 0.764263 3.21656 0.782372 3.17491 0.808974C2.39549 1.30767 1.76263 2.00459 1.34116 2.82835C1.31156 2.8855 1.29716 2.94931 1.29935 3.01363C1.30155 3.07796 1.32026 3.14064 1.35369 3.19564C1.38713 3.25064 1.43415 3.29611 1.49025 3.32767C1.54634 3.35923 1.60961 3.37582 1.67398 3.37585ZM10.3974 8.24804C10.4638 8.36196 10.4991 8.49139 10.4995 8.62327C10.5 8.75516 10.4656 8.88482 10.4 8.9992C10.3343 9.11358 10.2397 9.20863 10.1256 9.27476C10.0115 9.34088 9.88195 9.37575 9.75007 9.37585H2.25007C2.11827 9.37559 1.98886 9.3406 1.87489 9.27441C1.76091 9.20821 1.66639 9.11315 1.60085 8.9988C1.53531 8.88445 1.50106 8.75484 1.50156 8.62304C1.50205 8.49124 1.53727 8.36189 1.60366 8.24804C2.02601 7.51913 2.25007 6.48272 2.25007 5.25085C2.25007 4.25629 2.64516 3.30246 3.34842 2.5992C4.05168 1.89594 5.00551 1.50085 6.00007 1.50085C6.99463 1.50085 7.94846 1.89594 8.65172 2.5992C9.35498 3.30246 9.75007 4.25629 9.75007 5.25085C9.75007 6.48226 9.97413 7.51866 10.3974 8.24804ZM9.75007 8.62585C9.25132 7.76944 9.00007 6.63413 9.00007 5.25085C9.00007 4.4552 8.684 3.69214 8.12139 3.12953C7.55878 2.56692 6.79572 2.25085 6.00007 2.25085C5.20442 2.25085 4.44136 2.56692 3.87875 3.12953C3.31614 3.69214 3.00007 4.4552 3.00007 5.25085C3.00007 6.6346 2.74788 7.76991 2.25007 8.62585H9.75007Z" fill="#333333"/>
</svg>
