<svg width="24" height="24" viewBox="0 0 24 24" fill="none" xmlns="http://www.w3.org/2000/svg">
<path d="M20.8864 12.6364C21.0552 12.4676 21.15 12.2387 21.15 12C21.15 11.7613 21.0552 11.5324 20.8864 11.3636C20.7176 11.1948 20.4887 11.1 20.25 11.1H7.75C7.5113 11.1 7.28239 11.1948 7.1136 11.3636C6.94482 11.5324 6.85 11.7613 6.85 12C6.85 12.2387 6.94482 12.4676 7.1136 12.6364C7.28239 12.8052 7.5113 12.9 7.75 12.9H20.25C20.4887 12.9 20.7176 12.8052 20.8864 12.6364ZM3.75 6.9H20.25C20.4887 6.9 20.7176 6.80518 20.8864 6.6364C21.0552 6.46761 21.15 6.23869 21.15 6C21.15 5.76131 21.0552 5.53239 20.8864 5.3636C20.7176 5.19482 20.4887 5.1 20.25 5.1H3.75C3.5113 5.1 3.28239 5.19482 3.1136 5.3636C2.94482 5.53239 2.85 5.7613 2.85 6C2.85 6.2387 2.94482 6.46761 3.1136 6.6364C3.28239 6.80518 3.5113 6.9 3.75 6.9ZM20.25 17.1H3.75C3.51131 17.1 3.28239 17.1948 3.1136 17.3636C2.94482 17.5324 2.85 17.7613 2.85 18C2.85 18.2387 2.94482 18.4676 3.1136 18.6364C3.28239 18.8052 3.51131 18.9 3.75 18.9H20.25C20.4887 18.9 20.7176 18.8052 20.8864 18.6364C21.0552 18.4676 21.15 18.2387 21.15 18C21.15 17.7613 21.0552 17.5324 20.8864 17.3636C20.7176 17.1948 20.4887 17.1 20.25 17.1Z" fill="#333333" stroke="#333333" stroke-width="0.3"/>
</svg>
