<svg width="22" height="22" viewBox="0 0 22 22" fill="none" xmlns="http://www.w3.org/2000/svg">
<g clip-path="url(#clip0_240_5)">
<mask id="path-1-outside-1_240_5" maskUnits="userSpaceOnUse" x="-1" y="1.0625" width="22" height="18" fill="black">
<rect fill="white" x="-1" y="1.0625" width="22" height="18"/>
<path d="M19.794 12.1223C19.5382 11.9255 19.2404 11.7903 18.9238 11.7273C18.6072 11.6642 18.2804 11.675 17.9687 11.7588L14.373 12.5855C14.4567 12.2322 14.4593 11.8644 14.3806 11.5099C14.3019 11.1554 14.144 10.8233 13.9187 10.5385C13.6934 10.2536 13.4066 10.0235 13.0797 9.86531C12.7528 9.70712 12.3944 9.62496 12.0312 9.625H7.72922C7.36794 9.6241 7.01006 9.69479 6.67625 9.833C6.34245 9.97121 6.03935 10.1742 5.78445 10.4302L3.84055 12.375H1.375C1.01033 12.375 0.660591 12.5199 0.402728 12.7777C0.144866 13.0356 0 13.3853 0 13.75L0 17.1875C0 17.5522 0.144866 17.9019 0.402728 18.1598C0.660591 18.4176 1.01033 18.5625 1.375 18.5625H10.3125C10.3687 18.5625 10.4247 18.5556 10.4792 18.5419L15.9792 17.1669C16.0143 17.1585 16.0485 17.147 16.0815 17.1325L19.4219 15.7111L19.4597 15.6939C19.7807 15.5335 20.0556 15.294 20.2585 14.998C20.4614 14.7019 20.5856 14.3591 20.6194 14.0018C20.6532 13.6445 20.5954 13.2845 20.4516 12.9557C20.3078 12.6269 20.0827 12.3401 19.7974 12.1223H19.794ZM1.375 13.75H3.4375V17.1875H1.375V13.75ZM18.8573 14.4555L15.5916 15.846L10.2266 17.1875H4.8125V13.347L6.75727 11.403C6.88448 11.2748 7.03592 11.1731 7.20278 11.104C7.36964 11.0348 7.54858 10.9994 7.72922 11H12.0312C12.3048 11 12.5671 11.1087 12.7605 11.302C12.9538 11.4954 13.0625 11.7577 13.0625 12.0313C13.0625 12.3048 12.9538 12.5671 12.7605 12.7605C12.5671 12.9539 12.3048 13.0625 12.0312 13.0625H9.625C9.44266 13.0625 9.2678 13.1349 9.13886 13.2639C9.00993 13.3928 8.9375 13.5677 8.9375 13.75C8.9375 13.9323 9.00993 14.1072 9.13886 14.2361C9.2678 14.3651 9.44266 14.4375 9.625 14.4375H12.375C12.4267 14.4374 12.4783 14.4316 12.5288 14.4203L18.2866 13.096L18.3133 13.0891C18.489 13.0403 18.6767 13.0583 18.84 13.1395C19.0033 13.2207 19.1309 13.3594 19.1981 13.529C19.2653 13.6986 19.2674 13.8871 19.204 14.0581C19.1406 14.2292 19.0162 14.3707 18.8547 14.4555H18.8573ZM14.0938 8.25C14.2636 8.25019 14.4332 8.2364 14.6008 8.20875C14.7893 8.76867 15.1342 9.26291 15.5947 9.63303C16.0552 10.0032 16.612 10.2337 17.1994 10.2974C17.7867 10.361 18.38 10.2552 18.9092 9.99237C19.4383 9.72954 19.8811 9.3207 20.1852 8.81418C20.4893 8.30767 20.6421 7.72467 20.6253 7.1341C20.6086 6.54354 20.4232 5.97011 20.0909 5.48161C19.7586 4.99311 19.2934 4.60997 18.7502 4.37748C18.2071 4.145 17.6088 4.07289 17.0259 4.16969C16.8444 3.63021 16.5176 3.15127 16.0814 2.78556C15.6453 2.41985 15.1167 2.18156 14.5538 2.09691C13.991 2.01226 13.4157 2.08452 12.8912 2.30576C12.3668 2.527 11.9135 2.88862 11.5814 3.35085C11.2492 3.81307 11.051 4.35797 11.0086 4.92557C10.9661 5.49318 11.0811 6.0615 11.3408 6.56798C11.6006 7.07445 11.995 7.49946 12.4807 7.79623C12.9664 8.09299 13.5246 8.25001 14.0938 8.25ZM19.25 7.21875C19.25 7.55869 19.1492 7.89099 18.9603 8.17364C18.7715 8.45628 18.503 8.67658 18.189 8.80667C17.8749 8.93676 17.5293 8.97079 17.1959 8.90448C16.8625 8.83816 16.5563 8.67446 16.3159 8.43409C16.0755 8.19372 15.9118 7.88747 15.8455 7.55406C15.7792 7.22066 15.8132 6.87507 15.9433 6.56101C16.0734 6.24695 16.2937 5.97852 16.5764 5.78966C16.859 5.6008 17.1913 5.5 17.5312 5.5C17.9871 5.5 18.4243 5.68108 18.7466 6.00341C19.0689 6.32574 19.25 6.76291 19.25 7.21875ZM14.0938 3.4375C14.4687 3.43769 14.8333 3.56048 15.132 3.78716C15.4306 4.01384 15.647 4.33197 15.748 4.69305C15.3959 4.9408 15.0994 5.25932 14.8774 5.62823C14.6555 5.99714 14.5129 6.40832 14.459 6.83547C14.339 6.86139 14.2165 6.87464 14.0938 6.875C13.6379 6.875 13.2007 6.69392 12.8784 6.37159C12.5561 6.04926 12.375 5.61209 12.375 5.15625C12.375 4.70041 12.5561 4.26324 12.8784 3.94091C13.2007 3.61858 13.6379 3.4375 14.0938 3.4375Z"/>
</mask>
<path d="M19.794 12.1223C19.5382 11.9255 19.2404 11.7903 18.9238 11.7273C18.6072 11.6642 18.2804 11.675 17.9687 11.7588L14.373 12.5855C14.4567 12.2322 14.4593 11.8644 14.3806 11.5099C14.3019 11.1554 14.144 10.8233 13.9187 10.5385C13.6934 10.2536 13.4066 10.0235 13.0797 9.86531C12.7528 9.70712 12.3944 9.62496 12.0312 9.625H7.72922C7.36794 9.6241 7.01006 9.69479 6.67625 9.833C6.34245 9.97121 6.03935 10.1742 5.78445 10.4302L3.84055 12.375H1.375C1.01033 12.375 0.660591 12.5199 0.402728 12.7777C0.144866 13.0356 0 13.3853 0 13.75L0 17.1875C0 17.5522 0.144866 17.9019 0.402728 18.1598C0.660591 18.4176 1.01033 18.5625 1.375 18.5625H10.3125C10.3687 18.5625 10.4247 18.5556 10.4792 18.5419L15.9792 17.1669C16.0143 17.1585 16.0485 17.147 16.0815 17.1325L19.4219 15.7111L19.4597 15.6939C19.7807 15.5335 20.0556 15.294 20.2585 14.998C20.4614 14.7019 20.5856 14.3591 20.6194 14.0018C20.6532 13.6445 20.5954 13.2845 20.4516 12.9557C20.3078 12.6269 20.0827 12.3401 19.7974 12.1223H19.794ZM1.375 13.75H3.4375V17.1875H1.375V13.75ZM18.8573 14.4555L15.5916 15.846L10.2266 17.1875H4.8125V13.347L6.75727 11.403C6.88448 11.2748 7.03592 11.1731 7.20278 11.104C7.36964 11.0348 7.54858 10.9994 7.72922 11H12.0312C12.3048 11 12.5671 11.1087 12.7605 11.302C12.9538 11.4954 13.0625 11.7577 13.0625 12.0313C13.0625 12.3048 12.9538 12.5671 12.7605 12.7605C12.5671 12.9539 12.3048 13.0625 12.0312 13.0625H9.625C9.44266 13.0625 9.2678 13.1349 9.13886 13.2639C9.00993 13.3928 8.9375 13.5677 8.9375 13.75C8.9375 13.9323 9.00993 14.1072 9.13886 14.2361C9.2678 14.3651 9.44266 14.4375 9.625 14.4375H12.375C12.4267 14.4374 12.4783 14.4316 12.5288 14.4203L18.2866 13.096L18.3133 13.0891C18.489 13.0403 18.6767 13.0583 18.84 13.1395C19.0033 13.2207 19.1309 13.3594 19.1981 13.529C19.2653 13.6986 19.2674 13.8871 19.204 14.0581C19.1406 14.2292 19.0162 14.3707 18.8547 14.4555H18.8573ZM14.0938 8.25C14.2636 8.25019 14.4332 8.2364 14.6008 8.20875C14.7893 8.76867 15.1342 9.26291 15.5947 9.63303C16.0552 10.0032 16.612 10.2337 17.1994 10.2974C17.7867 10.361 18.38 10.2552 18.9092 9.99237C19.4383 9.72954 19.8811 9.3207 20.1852 8.81418C20.4893 8.30767 20.6421 7.72467 20.6253 7.1341C20.6086 6.54354 20.4232 5.97011 20.0909 5.48161C19.7586 4.99311 19.2934 4.60997 18.7502 4.37748C18.2071 4.145 17.6088 4.07289 17.0259 4.16969C16.8444 3.63021 16.5176 3.15127 16.0814 2.78556C15.6453 2.41985 15.1167 2.18156 14.5538 2.09691C13.991 2.01226 13.4157 2.08452 12.8912 2.30576C12.3668 2.527 11.9135 2.88862 11.5814 3.35085C11.2492 3.81307 11.051 4.35797 11.0086 4.92557C10.9661 5.49318 11.0811 6.0615 11.3408 6.56798C11.6006 7.07445 11.995 7.49946 12.4807 7.79623C12.9664 8.09299 13.5246 8.25001 14.0938 8.25ZM19.25 7.21875C19.25 7.55869 19.1492 7.89099 18.9603 8.17364C18.7715 8.45628 18.503 8.67658 18.189 8.80667C17.8749 8.93676 17.5293 8.97079 17.1959 8.90448C16.8625 8.83816 16.5563 8.67446 16.3159 8.43409C16.0755 8.19372 15.9118 7.88747 15.8455 7.55406C15.7792 7.22066 15.8132 6.87507 15.9433 6.56101C16.0734 6.24695 16.2937 5.97852 16.5764 5.78966C16.859 5.6008 17.1913 5.5 17.5312 5.5C17.9871 5.5 18.4243 5.68108 18.7466 6.00341C19.0689 6.32574 19.25 6.76291 19.25 7.21875ZM14.0938 3.4375C14.4687 3.43769 14.8333 3.56048 15.132 3.78716C15.4306 4.01384 15.647 4.33197 15.748 4.69305C15.3959 4.9408 15.0994 5.25932 14.8774 5.62823C14.6555 5.99714 14.5129 6.40832 14.459 6.83547C14.339 6.86139 14.2165 6.87464 14.0938 6.875C13.6379 6.875 13.2007 6.69392 12.8784 6.37159C12.5561 6.04926 12.375 5.61209 12.375 5.15625C12.375 4.70041 12.5561 4.26324 12.8784 3.94091C13.2007 3.61858 13.6379 3.4375 14.0938 3.4375Z" fill="black"/>
<path d="M19.794 12.1223C19.5382 11.9255 19.2404 11.7903 18.9238 11.7273C18.6072 11.6642 18.2804 11.675 17.9687 11.7588L14.373 12.5855C14.4567 12.2322 14.4593 11.8644 14.3806 11.5099C14.3019 11.1554 14.144 10.8233 13.9187 10.5385C13.6934 10.2536 13.4066 10.0235 13.0797 9.86531C12.7528 9.70712 12.3944 9.62496 12.0312 9.625H7.72922C7.36794 9.6241 7.01006 9.69479 6.67625 9.833C6.34245 9.97121 6.03935 10.1742 5.78445 10.4302L3.84055 12.375H1.375C1.01033 12.375 0.660591 12.5199 0.402728 12.7777C0.144866 13.0356 0 13.3853 0 13.75L0 17.1875C0 17.5522 0.144866 17.9019 0.402728 18.1598C0.660591 18.4176 1.01033 18.5625 1.375 18.5625H10.3125C10.3687 18.5625 10.4247 18.5556 10.4792 18.5419L15.9792 17.1669C16.0143 17.1585 16.0485 17.147 16.0815 17.1325L19.4219 15.7111L19.4597 15.6939C19.7807 15.5335 20.0556 15.294 20.2585 14.998C20.4614 14.7019 20.5856 14.3591 20.6194 14.0018C20.6532 13.6445 20.5954 13.2845 20.4516 12.9557C20.3078 12.6269 20.0827 12.3401 19.7974 12.1223H19.794ZM1.375 13.75H3.4375V17.1875H1.375V13.75ZM18.8573 14.4555L15.5916 15.846L10.2266 17.1875H4.8125V13.347L6.75727 11.403C6.88448 11.2748 7.03592 11.1731 7.20278 11.104C7.36964 11.0348 7.54858 10.9994 7.72922 11H12.0312C12.3048 11 12.5671 11.1087 12.7605 11.302C12.9538 11.4954 13.0625 11.7577 13.0625 12.0313C13.0625 12.3048 12.9538 12.5671 12.7605 12.7605C12.5671 12.9539 12.3048 13.0625 12.0312 13.0625H9.625C9.44266 13.0625 9.2678 13.1349 9.13886 13.2639C9.00993 13.3928 8.9375 13.5677 8.9375 13.75C8.9375 13.9323 9.00993 14.1072 9.13886 14.2361C9.2678 14.3651 9.44266 14.4375 9.625 14.4375H12.375C12.4267 14.4374 12.4783 14.4316 12.5288 14.4203L18.2866 13.096L18.3133 13.0891C18.489 13.0403 18.6767 13.0583 18.84 13.1395C19.0033 13.2207 19.1309 13.3594 19.1981 13.529C19.2653 13.6986 19.2674 13.8871 19.204 14.0581C19.1406 14.2292 19.0162 14.3707 18.8547 14.4555H18.8573ZM14.0938 8.25C14.2636 8.25019 14.4332 8.2364 14.6008 8.20875C14.7893 8.76867 15.1342 9.26291 15.5947 9.63303C16.0552 10.0032 16.612 10.2337 17.1994 10.2974C17.7867 10.361 18.38 10.2552 18.9092 9.99237C19.4383 9.72954 19.8811 9.3207 20.1852 8.81418C20.4893 8.30767 20.6421 7.72467 20.6253 7.1341C20.6086 6.54354 20.4232 5.97011 20.0909 5.48161C19.7586 4.99311 19.2934 4.60997 18.7502 4.37748C18.2071 4.145 17.6088 4.07289 17.0259 4.16969C16.8444 3.63021 16.5176 3.15127 16.0814 2.78556C15.6453 2.41985 15.1167 2.18156 14.5538 2.09691C13.991 2.01226 13.4157 2.08452 12.8912 2.30576C12.3668 2.527 11.9135 2.88862 11.5814 3.35085C11.2492 3.81307 11.051 4.35797 11.0086 4.92557C10.9661 5.49318 11.0811 6.0615 11.3408 6.56798C11.6006 7.07445 11.995 7.49946 12.4807 7.79623C12.9664 8.09299 13.5246 8.25001 14.0938 8.25ZM19.25 7.21875C19.25 7.55869 19.1492 7.89099 18.9603 8.17364C18.7715 8.45628 18.503 8.67658 18.189 8.80667C17.8749 8.93676 17.5293 8.97079 17.1959 8.90448C16.8625 8.83816 16.5563 8.67446 16.3159 8.43409C16.0755 8.19372 15.9118 7.88747 15.8455 7.55406C15.7792 7.22066 15.8132 6.87507 15.9433 6.56101C16.0734 6.24695 16.2937 5.97852 16.5764 5.78966C16.859 5.6008 17.1913 5.5 17.5312 5.5C17.9871 5.5 18.4243 5.68108 18.7466 6.00341C19.0689 6.32574 19.25 6.76291 19.25 7.21875ZM14.0938 3.4375C14.4687 3.43769 14.8333 3.56048 15.132 3.78716C15.4306 4.01384 15.647 4.33197 15.748 4.69305C15.3959 4.9408 15.0994 5.25932 14.8774 5.62823C14.6555 5.99714 14.5129 6.40832 14.459 6.83547C14.339 6.86139 14.2165 6.87464 14.0938 6.875C13.6379 6.875 13.2007 6.69392 12.8784 6.37159C12.5561 6.04926 12.375 5.61209 12.375 5.15625C12.375 4.70041 12.5561 4.26324 12.8784 3.94091C13.2007 3.61858 13.6379 3.4375 14.0938 3.4375Z" stroke="black" stroke-width="0.4" mask="url(#path-1-outside-1_240_5)"/>
</g>
<defs>
<clipPath id="clip0_240_5">
<rect width="22" height="22" fill="white"/>
</clipPath>
</defs>
</svg>
