<svg width="24" height="24" viewBox="0 0 24 24" fill="none" xmlns="http://www.w3.org/2000/svg">
<path d="M15.2194 4.71896L7.71935 12.219C7.64962 12.2886 7.5943 12.3713 7.55656 12.4624C7.51882 12.5534 7.49939 12.651 7.49939 12.7496C7.49939 12.8481 7.51882 12.9457 7.55656 13.0368C7.5943 13.1278 7.64962 13.2106 7.71935 13.2802L15.2194 20.7802C15.3601 20.9209 15.551 21 15.75 21C15.949 21 16.1399 20.9209 16.2806 20.7802C16.4213 20.6395 16.5004 20.4486 16.5004 20.2496C16.5004 20.0506 16.4213 19.8597 16.2806 19.719L9.31029 12.7496L16.2806 5.78021C16.3503 5.71052 16.4056 5.6278 16.4433 5.53675C16.481 5.44571 16.5004 5.34813 16.5004 5.24958C16.5004 5.15104 16.481 5.05345 16.4433 4.96241C16.4056 4.87136 16.3503 4.78864 16.2806 4.71896C16.2109 4.64927 16.1282 4.594 16.0372 4.55629C15.9461 4.51858 15.8485 4.49916 15.75 4.49916C15.6514 4.49916 15.5539 4.51858 15.4628 4.55629C15.3718 4.594 15.289 4.64927 15.2194 4.71896Z" fill="#444444"/>
</svg>
