<svg width="22" height="22" viewBox="0 0 22 22" fill="none" xmlns="http://www.w3.org/2000/svg">
<path d="M3.50621 15.3535L3.50625 15.3562L2.59016 8.83609C2.02039 9.42906 1.375 10.1028 1.375 11C1.375 11.8972 2.02039 12.5701 2.59016 13.1639L2.59762 13.1717C2.91927 13.5079 3.25027 13.8538 3.37562 14.1582C3.49227 14.4387 3.49935 14.9032 3.50621 15.3535ZM2.5179 8.76696L2.5096 8.7756C1.94798 9.36007 1.275 10.0604 1.275 11C1.275 11.9377 1.9454 12.6364 2.50628 13.2209L2.5179 13.233L2.518 13.2331L2.52409 13.2395C2.68462 13.4073 2.8445 13.5744 2.98023 13.737C3.11839 13.9026 3.22589 14.0572 3.28316 14.1963L3.28329 14.1966C3.33555 14.3223 3.36555 14.4962 3.38253 14.7016C3.39937 14.9054 3.40281 15.1309 3.40625 15.3571L3.40626 15.3577L3.40626 15.3577L3.40657 15.3776C3.41921 16.2033 3.4343 17.1882 4.12304 17.877C4.81178 18.5657 5.79668 18.5808 6.62235 18.5934L6.64229 18.5937L6.64301 18.5938C6.86917 18.5972 7.09461 18.6006 7.29838 18.6175C7.50378 18.6344 7.67774 18.6644 7.8034 18.7167L7.80363 18.7168C7.94234 18.7741 8.09692 18.8816 8.26266 19.0198C8.42707 19.1569 8.59609 19.3186 8.76547 19.4807L8.76686 19.482L8.76696 19.4821L8.77908 19.4937C9.36359 20.0546 10.0623 20.725 11 20.725C11.9377 20.725 12.6364 20.0546 13.2209 19.4937L13.233 19.4821L13.2331 19.482L13.2395 19.476C13.4072 19.3154 13.5743 19.1555 13.737 19.0198C13.9026 18.8816 14.0572 18.7741 14.1963 18.7168L14.1966 18.7167C14.3223 18.6644 14.4962 18.6344 14.7016 18.6175C14.9054 18.6006 15.1308 18.5972 15.357 18.5938L15.3577 18.5937L15.3777 18.5934C16.2033 18.5808 17.1882 18.5657 17.877 17.877C18.5657 17.1882 18.5808 16.2033 18.5934 15.3777L18.5937 15.3577L18.5938 15.357C18.5972 15.1308 18.6006 14.9054 18.6175 14.7016C18.6344 14.4962 18.6644 14.3223 18.7167 14.1966L18.7168 14.1964C18.7741 14.0577 18.8816 13.9031 19.0198 13.7373C19.1569 13.5729 19.3186 13.4039 19.4807 13.2345L19.482 13.2332L19.4821 13.233L19.4904 13.2244C20.052 12.6399 20.725 11.9396 20.725 11C20.725 10.0623 20.0546 9.36359 19.4937 8.77908L19.4821 8.76696L19.482 8.76686L19.4759 8.76052C19.3154 8.59276 19.1555 8.42566 19.0198 8.26296C18.8816 8.09735 18.7741 7.9428 18.7168 7.80372L18.7167 7.8034C18.6644 7.67774 18.6344 7.50378 18.6175 7.29838C18.6006 7.09461 18.5972 6.86917 18.5938 6.64301L18.5937 6.6423L18.5934 6.62235C18.5808 5.79668 18.5657 4.81178 17.877 4.12304C17.1882 3.4343 16.2033 3.41921 15.3776 3.40657L15.3577 3.40626L15.3577 3.40626L15.3571 3.40625C15.1309 3.40281 14.9054 3.39937 14.7016 3.38253C14.4962 3.36555 14.3223 3.33555 14.1966 3.28329L14.1963 3.28316C14.0572 3.22589 13.9026 3.11839 13.737 2.98023C13.5744 2.8445 13.4073 2.68462 13.2395 2.52409L13.2331 2.518L13.233 2.5179L13.2209 2.50628C12.6364 1.9454 11.9377 1.275 11 1.275C10.0623 1.275 9.36359 1.9454 8.77908 2.50628L8.76696 2.5179L8.76686 2.518L8.76047 2.52411C8.59272 2.68463 8.42564 2.8445 8.26296 2.98023C8.09735 3.11839 7.9428 3.22589 7.80372 3.28316L7.80319 3.28338C7.67854 3.33554 7.50473 3.36554 7.29904 3.38253C7.09512 3.39936 6.86934 3.4028 6.64326 3.40625L6.6423 3.40626L6.64229 3.40626L6.62236 3.40657C5.79668 3.41921 4.81178 3.4343 4.12304 4.12304C3.44327 4.80281 3.42378 5.7715 3.40733 6.58951C3.40698 6.60701 3.40663 6.62443 3.40627 6.64178L3.40626 6.6423L3.40625 6.64291C3.40281 6.8691 3.39937 7.09459 3.38253 7.29838C3.36555 7.50378 3.33555 7.67774 3.28329 7.8034L3.28316 7.80372C3.22589 7.9428 3.11839 8.09735 2.98023 8.26296C2.8445 8.42564 2.68463 8.59272 2.52411 8.76047L2.51805 8.76681L2.5179 8.76696ZM18.3451 12.1433L18.3451 12.1434L18.3361 12.1527C17.9297 12.5769 17.4937 13.032 17.261 13.594L17.2609 13.5941C17.0365 14.1374 17.0273 14.7543 17.0188 15.3288L17.0188 15.3341L17.0188 15.3341C17.0144 15.6365 17.0099 15.9378 16.974 16.1965C16.9377 16.4591 16.8717 16.6541 16.7628 16.7626C16.6538 16.8713 16.4593 16.9373 16.1974 16.9737C15.9392 17.0097 15.6382 17.0144 15.3341 17.0188L15.3341 17.0188L15.3288 17.0188C14.7543 17.0273 14.1374 17.0365 13.5941 17.2609L13.594 17.261C13.032 17.4937 12.5769 17.9297 12.1527 18.3361L12.1434 18.3451C11.9274 18.552 11.7146 18.7558 11.5136 18.9083C11.3086 19.0639 11.1362 19.15 11 19.15C10.8639 19.15 10.6908 19.0635 10.4854 18.9077C10.2842 18.7549 10.0713 18.5511 9.85667 18.3451L9.85368 18.3423C9.43013 17.9357 8.97079 17.4949 8.406 17.261L8.40592 17.2609C7.8626 17.0365 7.24574 17.0273 6.67117 17.0188L6.66593 17.0188L6.66588 17.0188C6.36351 17.0144 6.06221 17.0099 5.80355 16.974C5.54088 16.9377 5.34587 16.8717 5.23739 16.7628C5.12869 16.6538 5.06274 16.4593 5.02627 16.1974C4.99034 15.9392 4.98556 15.6382 4.98124 15.3341L4.98124 15.3341L4.98116 15.3288C4.97265 14.7543 4.96351 14.1374 4.73906 13.5941L4.73903 13.594C4.50627 13.032 4.07027 12.5769 3.66389 12.1527L3.65495 12.1434C3.44802 11.9274 3.24421 11.7146 3.09165 11.5136C2.93607 11.3086 2.85 11.1362 2.85 11C2.85 10.8639 2.93646 10.6908 3.0923 10.4854C3.24506 10.2842 3.44888 10.0713 3.65488 9.85667L3.65774 9.85369C4.06425 9.43013 4.50511 8.9708 4.73903 8.406L4.73906 8.40592C4.96351 7.8626 4.97265 7.24574 4.98116 6.67118L4.98124 6.66594L4.98124 6.66588C4.98556 6.36351 4.99013 6.06221 5.02596 5.80355C5.06235 5.54088 5.12833 5.34587 5.23716 5.23739C5.34621 5.12869 5.54068 5.06274 5.80265 5.02627C6.06075 4.99034 6.36184 4.98556 6.66587 4.98124L6.66594 4.98124L6.67118 4.98116C7.24574 4.97265 7.8626 4.96351 8.40592 4.73906L8.406 4.73903C8.96799 4.50627 9.42307 4.07028 9.84725 3.6639L9.8566 3.65495C10.0726 3.44802 10.2854 3.24421 10.4864 3.09165C10.6914 2.93607 10.8638 2.85 11 2.85C11.1361 2.85 11.3092 2.93646 11.5146 3.0923C11.7158 3.24506 11.9287 3.44888 12.1433 3.65488L12.1463 3.65774C12.5699 4.06425 13.0292 4.50511 13.594 4.73903L13.5941 4.73906C14.1374 4.96351 14.7543 4.97265 15.3288 4.98116L15.3341 4.98124L15.3341 4.98124C15.6365 4.98556 15.9378 4.99013 16.1965 5.02596C16.4591 5.06235 16.6541 5.12833 16.7626 5.23716C16.8713 5.34621 16.9373 5.54068 16.9737 5.80265C17.0097 6.06075 17.0144 6.36184 17.0188 6.66587L17.0188 6.66593L17.0188 6.67117C17.0273 7.24574 17.0365 7.8626 17.2609 8.40592L17.261 8.406C17.4937 8.96798 17.9297 9.42307 18.3361 9.84725L18.3451 9.8566C18.552 10.0726 18.7558 10.2854 18.9083 10.4864C19.0639 10.6914 19.15 10.8638 19.15 11C19.15 11.1361 19.0635 11.3092 18.9077 11.5146C18.7549 11.7158 18.5511 11.9287 18.3451 12.1433Z" fill="black" stroke="black" stroke-width="0.2"/>
<mask id="path-2-outside-1_240_120" maskUnits="userSpaceOnUse" x="6.41699" y="7.67969" width="9" height="8" fill="black">
<rect fill="white" x="6.41699" y="7.67969" width="9" height="8"/>
<path d="M9.84659 14.5177C9.76859 14.6557 9.66959 14.7457 9.54959 14.7877C9.42959 14.8357 9.31259 14.8447 9.19859 14.8147C9.08459 14.7847 8.98559 14.7277 8.90159 14.6437C8.81759 14.5597 8.76659 14.4547 8.74859 14.3287C8.73059 14.2027 8.76059 14.0707 8.83859 13.9327L11.9886 8.50569C12.0726 8.36169 12.1716 8.26869 12.2856 8.22669C12.3996 8.17869 12.5136 8.16969 12.6276 8.19969C12.7476 8.22969 12.8466 8.28969 12.9246 8.37969C13.0086 8.46369 13.0596 8.56869 13.0776 8.69469C13.1016 8.81469 13.0716 8.94369 12.9876 9.08169L9.84659 14.5177ZM8.54159 12.1147C8.00159 12.1147 7.58159 11.9377 7.28159 11.5837C6.98759 11.2237 6.84059 10.7497 6.84059 10.1617C6.84059 9.76569 6.90959 9.42369 7.04759 9.13569C7.18559 8.84769 7.38059 8.62569 7.63259 8.46969C7.88459 8.31369 8.18759 8.23569 8.54159 8.23569C9.07559 8.23569 9.48959 8.41269 9.78359 8.76669C10.0836 9.11469 10.2336 9.57969 10.2336 10.1617C10.2336 10.5517 10.1646 10.8937 10.0266 11.1877C9.89459 11.4817 9.70259 11.7097 9.45059 11.8717C9.19859 12.0337 8.89559 12.1147 8.54159 12.1147ZM8.54159 11.1247C8.63159 11.1247 8.70659 11.0947 8.76659 11.0347C8.83259 10.9687 8.88059 10.8667 8.91059 10.7287C8.94659 10.5847 8.96459 10.3957 8.96459 10.1617C8.96459 9.80769 8.92559 9.56169 8.84759 9.42369C8.77559 9.28569 8.67359 9.21669 8.54159 9.21669C8.44559 9.21669 8.36459 9.24669 8.29859 9.30669C8.23859 9.36069 8.19059 9.45669 8.15459 9.59469C8.12459 9.73269 8.10959 9.92169 8.10959 10.1617C8.10959 10.5217 8.14559 10.7737 8.21759 10.9177C8.28959 11.0557 8.39759 11.1247 8.54159 11.1247ZM13.2936 14.7787C12.7596 14.7787 12.3426 14.6017 12.0426 14.2477C11.7486 13.8937 11.6016 13.4227 11.6016 12.8347C11.6016 12.4327 11.6676 12.0877 11.7996 11.7997C11.9376 11.5117 12.1326 11.2897 12.3846 11.1337C12.6426 10.9777 12.9456 10.8997 13.2936 10.8997C13.8276 10.8997 14.2446 11.0767 14.5446 11.4307C14.8446 11.7847 14.9946 12.2527 14.9946 12.8347C14.9946 13.2247 14.9256 13.5667 14.7876 13.8607C14.6556 14.1487 14.4636 14.3737 14.2116 14.5357C13.9596 14.6977 13.6536 14.7787 13.2936 14.7787ZM13.2936 13.7977C13.3896 13.7977 13.4676 13.7677 13.5276 13.7077C13.5936 13.6417 13.6416 13.5397 13.6716 13.4017C13.7076 13.2577 13.7256 13.0687 13.7256 12.8347C13.7256 12.4807 13.6866 12.2347 13.6086 12.0967C13.5366 11.9587 13.4316 11.8897 13.2936 11.8897C13.2036 11.8897 13.1256 11.9197 13.0596 11.9797C12.9996 12.0337 12.9516 12.1297 12.9156 12.2677C12.8856 12.3997 12.8706 12.5887 12.8706 12.8347C12.8706 13.1947 12.9066 13.4467 12.9786 13.5907C13.0506 13.7287 13.1556 13.7977 13.2936 13.7977Z"/>
</mask>
<path d="M9.84659 14.5177C9.76859 14.6557 9.66959 14.7457 9.54959 14.7877C9.42959 14.8357 9.31259 14.8447 9.19859 14.8147C9.08459 14.7847 8.98559 14.7277 8.90159 14.6437C8.81759 14.5597 8.76659 14.4547 8.74859 14.3287C8.73059 14.2027 8.76059 14.0707 8.83859 13.9327L11.9886 8.50569C12.0726 8.36169 12.1716 8.26869 12.2856 8.22669C12.3996 8.17869 12.5136 8.16969 12.6276 8.19969C12.7476 8.22969 12.8466 8.28969 12.9246 8.37969C13.0086 8.46369 13.0596 8.56869 13.0776 8.69469C13.1016 8.81469 13.0716 8.94369 12.9876 9.08169L9.84659 14.5177ZM8.54159 12.1147C8.00159 12.1147 7.58159 11.9377 7.28159 11.5837C6.98759 11.2237 6.84059 10.7497 6.84059 10.1617C6.84059 9.76569 6.90959 9.42369 7.04759 9.13569C7.18559 8.84769 7.38059 8.62569 7.63259 8.46969C7.88459 8.31369 8.18759 8.23569 8.54159 8.23569C9.07559 8.23569 9.48959 8.41269 9.78359 8.76669C10.0836 9.11469 10.2336 9.57969 10.2336 10.1617C10.2336 10.5517 10.1646 10.8937 10.0266 11.1877C9.89459 11.4817 9.70259 11.7097 9.45059 11.8717C9.19859 12.0337 8.89559 12.1147 8.54159 12.1147ZM8.54159 11.1247C8.63159 11.1247 8.70659 11.0947 8.76659 11.0347C8.83259 10.9687 8.88059 10.8667 8.91059 10.7287C8.94659 10.5847 8.96459 10.3957 8.96459 10.1617C8.96459 9.80769 8.92559 9.56169 8.84759 9.42369C8.77559 9.28569 8.67359 9.21669 8.54159 9.21669C8.44559 9.21669 8.36459 9.24669 8.29859 9.30669C8.23859 9.36069 8.19059 9.45669 8.15459 9.59469C8.12459 9.73269 8.10959 9.92169 8.10959 10.1617C8.10959 10.5217 8.14559 10.7737 8.21759 10.9177C8.28959 11.0557 8.39759 11.1247 8.54159 11.1247ZM13.2936 14.7787C12.7596 14.7787 12.3426 14.6017 12.0426 14.2477C11.7486 13.8937 11.6016 13.4227 11.6016 12.8347C11.6016 12.4327 11.6676 12.0877 11.7996 11.7997C11.9376 11.5117 12.1326 11.2897 12.3846 11.1337C12.6426 10.9777 12.9456 10.8997 13.2936 10.8997C13.8276 10.8997 14.2446 11.0767 14.5446 11.4307C14.8446 11.7847 14.9946 12.2527 14.9946 12.8347C14.9946 13.2247 14.9256 13.5667 14.7876 13.8607C14.6556 14.1487 14.4636 14.3737 14.2116 14.5357C13.9596 14.6977 13.6536 14.7787 13.2936 14.7787ZM13.2936 13.7977C13.3896 13.7977 13.4676 13.7677 13.5276 13.7077C13.5936 13.6417 13.6416 13.5397 13.6716 13.4017C13.7076 13.2577 13.7256 13.0687 13.7256 12.8347C13.7256 12.4807 13.6866 12.2347 13.6086 12.0967C13.5366 11.9587 13.4316 11.8897 13.2936 11.8897C13.2036 11.8897 13.1256 11.9197 13.0596 11.9797C12.9996 12.0337 12.9516 12.1297 12.9156 12.2677C12.8856 12.3997 12.8706 12.5887 12.8706 12.8347C12.8706 13.1947 12.9066 13.4467 12.9786 13.5907C13.0506 13.7287 13.1556 13.7977 13.2936 13.7977Z" fill="black"/>
<path d="M9.84659 14.5177L9.76 14.4677L9.75953 14.4685L9.84659 14.5177ZM9.54959 14.7877L9.51652 14.6932L9.51245 14.6948L9.54959 14.7877ZM9.19859 14.8147L9.22404 14.718L9.19859 14.8147ZM8.74859 14.3287L8.6496 14.3428L8.74859 14.3287ZM8.83859 13.9327L8.7521 13.8825L8.75153 13.8835L8.83859 13.9327ZM11.9886 8.50569L11.9022 8.4553L11.9021 8.45549L11.9886 8.50569ZM12.2856 8.22669L12.3202 8.32062L12.3244 8.31885L12.2856 8.22669ZM12.6276 8.19969L12.6021 8.2964L12.6033 8.2967L12.6276 8.19969ZM12.9246 8.37969L12.8488 8.44535L12.8539 8.4504L12.9246 8.37969ZM13.0776 8.69469L12.9784 8.70885L12.9795 8.7143L13.0776 8.69469ZM12.9876 9.08169L12.9021 9.02968L12.901 9.03166L12.9876 9.08169ZM7.28159 11.5837L7.20412 11.647L7.2053 11.6483L7.28159 11.5837ZM7.04759 9.13569L6.95741 9.09247L7.04759 9.13569ZM7.63259 8.46969L7.57995 8.38466H7.57995L7.63259 8.46969ZM9.78359 8.76669L9.70665 8.83059L9.70785 8.83198L9.78359 8.76669ZM10.0266 11.1877L9.93605 11.1452L9.93536 11.1467L10.0266 11.1877ZM9.45059 11.8717L9.50467 11.9558L9.45059 11.8717ZM8.76659 11.0347L8.69588 10.964H8.69588L8.76659 11.0347ZM8.91059 10.7287L8.81353 10.7044L8.81287 10.7074L8.91059 10.7287ZM8.84759 9.42369L8.75888 9.46997L8.76053 9.47289L8.84759 9.42369ZM8.29859 9.30669L8.36549 9.38102L8.36586 9.38068L8.29859 9.30669ZM8.15459 9.59469L8.05775 9.56942L8.05687 9.57344L8.15459 9.59469ZM8.21759 10.9177L8.12813 10.9624L8.12893 10.9639L8.21759 10.9177ZM12.0426 14.2477L11.9657 14.3116L11.9663 14.3123L12.0426 14.2477ZM11.7996 11.7997L11.7094 11.7565L11.7087 11.758L11.7996 11.7997ZM12.3846 11.1337L12.3328 11.0481L12.332 11.0487L12.3846 11.1337ZM14.5446 11.4307L14.6209 11.366L14.5446 11.4307ZM14.7876 13.8607L14.6971 13.8182L14.6967 13.819L14.7876 13.8607ZM14.2116 14.5357L14.1575 14.4516L14.2116 14.5357ZM13.5276 13.7077L13.4569 13.637H13.4569L13.5276 13.7077ZM13.6716 13.4017L13.5745 13.3774L13.5739 13.3804L13.6716 13.4017ZM13.6086 12.0967L13.5199 12.143L13.5215 12.1459L13.6086 12.0967ZM13.0596 11.9797L13.1265 12.054L13.1269 12.0537L13.0596 11.9797ZM12.9156 12.2677L12.8188 12.2424L12.8181 12.2455L12.9156 12.2677ZM12.9786 13.5907L12.8891 13.6354L12.8899 13.6369L12.9786 13.5907ZM9.75953 14.4685C9.69041 14.5908 9.60842 14.6611 9.51655 14.6933L9.58262 14.8821C9.73076 14.8302 9.84677 14.7206 9.93365 14.5669L9.75953 14.4685ZM9.51245 14.6948C9.41034 14.7357 9.31529 14.742 9.22404 14.718L9.17314 14.9114C9.30989 14.9474 9.44884 14.9357 9.58673 14.8805L9.51245 14.6948ZM9.22404 14.718C9.1273 14.6925 9.04388 14.6446 8.9723 14.573L8.83088 14.7144C8.9273 14.8108 9.04188 14.8769 9.17314 14.9114L9.22404 14.718ZM8.9723 14.573C8.90472 14.5054 8.86276 14.4208 8.84758 14.3145L8.6496 14.3428C8.67042 14.4886 8.73046 14.614 8.83088 14.7144L8.9723 14.573ZM8.84758 14.3145C8.83341 14.2153 8.85579 14.1055 8.92565 13.9819L8.75153 13.8835C8.66539 14.0359 8.62777 14.1901 8.6496 14.3428L8.84758 14.3145ZM8.92508 13.9829L12.0751 8.55589L11.9021 8.45549L8.7521 13.8825L8.92508 13.9829ZM12.075 8.55607C12.1516 8.42471 12.2348 8.35195 12.3202 8.32052L12.251 8.13285C12.1083 8.18542 11.9936 8.29867 11.9022 8.4553L12.075 8.55607ZM12.3244 8.31885C12.4191 8.27896 12.5106 8.2723 12.6021 8.29639L12.653 8.10298C12.5166 8.06708 12.38 8.07842 12.2468 8.13452L12.3244 8.31885ZM12.6033 8.2967C12.7042 8.32192 12.785 8.37134 12.849 8.44518L13.0002 8.31419C12.9082 8.20804 12.791 8.13745 12.6518 8.10267L12.6033 8.2967ZM12.8539 8.4504C12.9215 8.51798 12.9634 8.60262 12.9786 8.70883L13.1766 8.68055C13.1558 8.53475 13.0957 8.4094 12.9953 8.30898L12.8539 8.4504ZM12.9795 8.7143C12.9972 8.80266 12.9774 8.9061 12.9022 9.02969L13.073 9.13368C13.1658 8.98127 13.206 8.82671 13.1756 8.67508L12.9795 8.7143ZM12.901 9.03166L9.76 14.4677L9.93318 14.5677L13.0742 9.13172L12.901 9.03166ZM8.54159 12.0147C8.02563 12.0147 7.63568 11.8468 7.35788 11.519L7.2053 11.6483C7.5275 12.0285 7.97755 12.2147 8.54159 12.2147V12.0147ZM7.35904 11.5204C7.08314 11.1826 6.94059 10.7329 6.94059 10.1617H6.74059C6.74059 10.7665 6.89204 11.2648 7.20414 11.6469L7.35904 11.5204ZM6.94059 10.1617C6.94059 9.77714 7.0076 9.45057 7.13777 9.1789L6.95741 9.09247C6.81158 9.3968 6.74059 9.75424 6.74059 10.1617H6.94059ZM7.13777 9.1789C7.26818 8.90675 7.45075 8.69987 7.68523 8.55471L7.57995 8.38466C7.31043 8.55151 7.103 8.78863 6.95741 9.09247L7.13777 9.1789ZM7.68523 8.55471C7.91858 8.41026 8.20254 8.33569 8.54159 8.33569V8.13569C8.17264 8.13569 7.8506 8.21712 7.57995 8.38466L7.68523 8.55471ZM8.54159 8.33569C9.05118 8.33569 9.43482 8.50325 9.70666 8.83058L9.86052 8.7028C9.54436 8.32212 9.1 8.13569 8.54159 8.13569V8.33569ZM9.70785 8.83198C9.98838 9.1574 10.1336 9.59708 10.1336 10.1617H10.3336C10.3336 9.5623 10.1788 9.07198 9.85933 8.70139L9.70785 8.83198ZM10.1336 10.1617C10.1336 10.5399 10.0667 10.8669 9.93607 11.1452L10.1171 11.2302C10.2625 10.9205 10.3336 10.5635 10.3336 10.1617H10.1336ZM9.93536 11.1467C9.81067 11.4244 9.63096 11.6369 9.39651 11.7876L9.50467 11.9558C9.77422 11.7825 9.97851 11.5389 10.1178 11.2286L9.93536 11.1467ZM9.39651 11.7876C9.16338 11.9374 8.87995 12.0147 8.54159 12.0147V12.2147C8.91123 12.2147 9.2338 12.1299 9.50467 11.9558L9.39651 11.7876ZM8.54159 11.2247C8.65633 11.2247 8.75732 11.1854 8.8373 11.1054L8.69588 10.964C8.65586 11.004 8.60685 11.0247 8.54159 11.0247V11.2247ZM8.8373 11.1054C8.92214 11.0206 8.97618 10.8977 9.00831 10.7499L8.81287 10.7074C8.785 10.8357 8.74304 10.9168 8.69588 10.964L8.8373 11.1054ZM9.0076 10.7529C9.04638 10.5978 9.06459 10.3998 9.06459 10.1617H8.86459C8.86459 10.3916 8.8468 10.5716 8.81358 10.7044L9.0076 10.7529ZM9.06459 10.1617C9.06459 9.80683 9.02662 9.5372 8.93465 9.37448L8.76053 9.47289C8.82456 9.58618 8.86459 9.80855 8.86459 10.1617H9.06459ZM8.93625 9.37743C8.85075 9.21356 8.71829 9.11669 8.54159 9.11669V9.31669C8.62889 9.31669 8.70043 9.35781 8.75893 9.46994L8.93625 9.37743ZM8.54159 9.11669C8.42278 9.11669 8.3172 9.15462 8.23132 9.23269L8.36586 9.38068C8.41198 9.33876 8.4684 9.31669 8.54159 9.31669V9.11669ZM8.23169 9.23236C8.14977 9.30609 8.09545 9.42522 8.05783 9.56945L8.25135 9.61993C8.28573 9.48816 8.32741 9.41528 8.36549 9.38102L8.23169 9.23236ZM8.05687 9.57344C8.02466 9.7216 8.00959 9.91876 8.00959 10.1617H8.20959C8.20959 9.92461 8.22451 9.74378 8.25231 9.61593L8.05687 9.57344ZM8.00959 10.1617C8.00959 10.5226 8.04475 10.7956 8.12815 10.9624L8.30703 10.873C8.24643 10.7518 8.20959 10.5208 8.20959 10.1617H8.00959ZM8.12893 10.9639C8.17129 11.0451 8.22716 11.1115 8.29875 11.1572C8.37076 11.2032 8.45294 11.2247 8.54159 11.2247V11.0247C8.48624 11.0247 8.44242 11.0117 8.40643 10.9887C8.37002 10.9654 8.33589 10.9282 8.30625 10.8714L8.12893 10.9639ZM13.2936 14.6787C12.784 14.6787 12.3969 14.5111 12.1189 14.183L11.9663 14.3123C12.2883 14.6923 12.7351 14.8787 13.2936 14.8787V14.6787ZM12.1195 14.1838C11.8442 13.8523 11.7016 13.406 11.7016 12.8347H11.5016C11.5016 13.4394 11.653 13.9351 11.9657 14.3116L12.1195 14.1838ZM11.7016 12.8347C11.7016 12.4433 11.7659 12.1133 11.8905 11.8414L11.7087 11.758C11.5693 12.0621 11.5016 12.422 11.5016 12.8347H11.7016ZM11.8898 11.8429C12.0202 11.5707 12.2027 11.3639 12.4372 11.2187L12.332 11.0487C12.0624 11.2155 11.855 11.4526 11.7094 11.7565L11.8898 11.8429ZM12.4363 11.2193C12.6764 11.0741 12.961 10.9997 13.2936 10.9997V10.7997C12.9302 10.7997 12.6087 10.8813 12.3328 11.0481L12.4363 11.2193ZM13.2936 10.9997C13.8031 10.9997 14.1903 11.1673 14.4683 11.4953L14.6209 11.366C14.2989 10.9861 13.852 10.7997 13.2936 10.7997V10.9997ZM14.4683 11.4953C14.7494 11.8271 14.8946 12.2702 14.8946 12.8347H15.0946C15.0946 12.2352 14.9398 11.7423 14.6209 11.366L14.4683 11.4953ZM14.8946 12.8347C14.8946 13.2129 14.8277 13.5399 14.6971 13.8182L14.8781 13.9032C15.0235 13.5935 15.0946 13.2365 15.0946 12.8347H14.8946ZM14.6967 13.819C14.5722 14.0907 14.3925 14.3005 14.1575 14.4516L14.2657 14.6198C14.5347 14.4469 14.739 14.2067 14.8785 13.9024L14.6967 13.819ZM14.1575 14.4516C13.9246 14.6013 13.6383 14.6787 13.2936 14.6787V14.8787C13.6689 14.8787 13.9945 14.7941 14.2657 14.6198L14.1575 14.4516ZM13.2936 13.8977C13.4123 13.8977 13.517 13.8597 13.5983 13.7784L13.4569 13.637C13.4182 13.6757 13.3669 13.6977 13.2936 13.6977V13.8977ZM13.5983 13.7784C13.6831 13.6936 13.7372 13.5707 13.7693 13.4229L13.5739 13.3804C13.546 13.5087 13.504 13.5898 13.4569 13.637L13.5983 13.7784ZM13.7686 13.4259C13.8074 13.2708 13.8256 13.0728 13.8256 12.8347H13.6256C13.6256 13.0646 13.6078 13.2446 13.5746 13.3774L13.7686 13.4259ZM13.8256 12.8347C13.8256 12.4798 13.7876 12.2102 13.6956 12.0475L13.5215 12.1459C13.5856 12.2592 13.6256 12.4815 13.6256 12.8347H13.8256ZM13.6972 12.0504C13.6552 11.9699 13.6005 11.9037 13.5308 11.8579C13.4604 11.8116 13.3801 11.7897 13.2936 11.7897V11.9897C13.3451 11.9897 13.3863 12.0023 13.4209 12.025C13.4562 12.0482 13.49 12.0855 13.5199 12.1429L13.6972 12.0504ZM13.2936 11.7897C13.179 11.7897 13.0769 11.8288 12.9923 11.9057L13.1269 12.0537C13.1743 12.0106 13.2282 11.9897 13.2936 11.9897V11.7897ZM12.9927 11.9054C12.9108 11.9791 12.8565 12.0982 12.8188 12.2424L13.0124 12.2929C13.0467 12.1612 13.0884 12.0883 13.1265 12.054L12.9927 11.9054ZM12.8181 12.2455C12.7856 12.3884 12.7706 12.5862 12.7706 12.8347H12.9706C12.9706 12.5911 12.9856 12.4109 13.0131 12.2898L12.8181 12.2455ZM12.7706 12.8347C12.7706 13.1956 12.8058 13.4686 12.8891 13.6354L13.068 13.546C13.0074 13.4248 12.9706 13.1938 12.9706 12.8347H12.7706ZM12.8899 13.6369C12.932 13.7175 12.9867 13.7837 13.0564 13.8295C13.1268 13.8758 13.2071 13.8977 13.2936 13.8977V13.6977C13.2421 13.6977 13.2009 13.6851 13.1663 13.6624C13.131 13.6392 13.0972 13.6019 13.0672 13.5444L12.8899 13.6369Z" fill="black" mask="url(#path-2-outside-1_240_120)"/>
</svg>
