<svg width="96" height="16" viewBox="0 0 96 16" fill="none" xmlns="http://www.w3.org/2000/svg">
<path d="M11.5079 9.22613C11.4394 9.28633 11.3884 9.36396 11.3605 9.45079C11.3325 9.53761 11.3286 9.63039 11.3492 9.71926L12.1942 13.378C12.2165 13.4736 12.2102 13.5736 12.1761 13.6656C12.142 13.7576 12.0815 13.8376 12.0023 13.8955C11.9231 13.9534 11.8286 13.9867 11.7305 13.9912C11.6325 13.9958 11.5353 13.9714 11.451 13.9211L8.25729 11.9836C8.17968 11.9364 8.09061 11.9115 7.99979 11.9115C7.90896 11.9115 7.81989 11.9364 7.74229 11.9836L4.54853 13.9211C4.46427 13.9714 4.36706 13.9958 4.26903 13.9912C4.17101 13.9867 4.07649 13.9534 3.99726 13.8955C3.91803 13.8376 3.85759 13.7576 3.82348 13.6656C3.78936 13.5736 3.78308 13.4736 3.80541 13.378L4.65041 9.71926C4.67095 9.63039 4.66704 9.53761 4.63908 9.45079C4.61113 9.36396 4.56019 9.28633 4.49166 9.22613L1.67228 6.76676C1.59691 6.70269 1.54223 6.61771 1.51517 6.52256C1.48811 6.42741 1.48988 6.32638 1.52025 6.23223C1.55063 6.13809 1.60825 6.05508 1.68582 5.99369C1.76339 5.9323 1.85743 5.89531 1.95603 5.88738L5.67229 5.56613C5.76295 5.55806 5.84969 5.52538 5.92316 5.47163C5.99662 5.41789 6.05402 5.3451 6.08916 5.26113L7.54104 1.80113C7.57981 1.71168 7.6439 1.63551 7.72541 1.58201C7.80692 1.52851 7.90229 1.5 7.99979 1.5C8.09728 1.5 8.19266 1.52851 8.27416 1.58201C8.35567 1.63551 8.41976 1.71168 8.45854 1.80113L9.91041 5.26113C9.94555 5.3451 10.0029 5.41789 10.0764 5.47163C10.1499 5.52538 10.2366 5.55806 10.3273 5.56613L14.0435 5.88738C14.1421 5.89531 14.2362 5.9323 14.3137 5.99369C14.3913 6.05508 14.4489 6.13809 14.4793 6.23223C14.5097 6.32638 14.5115 6.42741 14.4844 6.52256C14.4573 6.61771 14.4027 6.70269 14.3273 6.76676L11.5079 9.22613Z" fill="#333333"/>
<path d="M14.9502 6.0805C14.8897 5.89387 14.7755 5.72917 14.6221 5.60692C14.4686 5.48467 14.2825 5.41028 14.0871 5.393L10.3752 5.073L8.92021 1.613C8.84446 1.43145 8.71668 1.27637 8.55297 1.16729C8.38926 1.05821 8.19693 1 8.00021 1C7.80349 1 7.61116 1.05821 7.44745 1.16729C7.28374 1.27637 7.15596 1.43145 7.08021 1.613L5.62958 5.073L1.91333 5.39488C1.71711 5.41137 1.53011 5.48542 1.37581 5.60776C1.2215 5.7301 1.10675 5.89527 1.04594 6.08257C0.985134 6.26986 0.980978 6.47094 1.03399 6.66059C1.08701 6.85024 1.19484 7.02002 1.34396 7.14863L4.16333 9.61238L3.31833 13.2711C3.27365 13.4626 3.2864 13.663 3.35499 13.8472C3.42358 14.0315 3.54496 14.1914 3.70396 14.3071C3.86296 14.4227 4.05252 14.489 4.24894 14.4975C4.44537 14.5059 4.63994 14.4564 4.80833 14.3549L7.99584 12.4174L11.1902 14.3549C11.3586 14.4564 11.5532 14.5059 11.7496 14.4975C11.946 14.489 12.1356 14.4227 12.2946 14.3071C12.4536 14.1914 12.575 14.0315 12.6436 13.8472C12.7121 13.663 12.7249 13.4626 12.6802 13.2711L11.8358 9.60863L14.6546 7.14863C14.8037 7.01957 14.9113 6.84931 14.9639 6.65926C15.0165 6.46921 15.0117 6.26785 14.9502 6.0805ZM13.999 6.393L11.1802 8.853C11.043 8.97233 10.941 9.12681 10.885 9.29982C10.8291 9.47283 10.8214 9.65781 10.8627 9.83488L11.7096 13.4999L8.51771 11.5624C8.36198 11.4675 8.18317 11.4174 8.00083 11.4174C7.8185 11.4174 7.63969 11.4675 7.48396 11.5624L4.29646 13.4999L5.13771 9.83737C5.17905 9.66031 5.17134 9.47533 5.1154 9.30232C5.05945 9.12931 4.9574 8.97483 4.82021 8.8555L2.00021 6.39675C1.99998 6.39488 1.99998 6.39299 2.00021 6.39113L5.71521 6.06988C5.89659 6.05389 6.07016 5.98868 6.21719 5.8813C6.36423 5.77391 6.47916 5.62841 6.54958 5.4605L8.00021 2.00488L9.45021 5.4605C9.52063 5.62841 9.63556 5.77391 9.7826 5.8813C9.92964 5.98868 10.1032 6.05389 10.2846 6.06988L14.0002 6.39113C14.0002 6.39113 14.0002 6.39488 14.0002 6.3955L13.999 6.393Z" fill="#333333"/>
<path d="M31.5079 9.22613C31.4394 9.28633 31.3884 9.36396 31.3605 9.45079C31.3325 9.53761 31.3286 9.63039 31.3492 9.71926L32.1942 13.378C32.2165 13.4736 32.2102 13.5736 32.1761 13.6656C32.142 13.7576 32.0815 13.8376 32.0023 13.8955C31.9231 13.9534 31.8286 13.9867 31.7305 13.9912C31.6325 13.9958 31.5353 13.9714 31.451 13.9211L28.2573 11.9836C28.1797 11.9364 28.0906 11.9115 27.9998 11.9115C27.909 11.9115 27.8199 11.9364 27.7423 11.9836L24.5485 13.9211C24.4643 13.9714 24.3671 13.9958 24.269 13.9912C24.171 13.9867 24.0765 13.9534 23.9973 13.8955C23.918 13.8376 23.8576 13.7576 23.8235 13.6656C23.7894 13.5736 23.7831 13.4736 23.8054 13.378L24.6504 9.71926C24.6709 9.63039 24.667 9.53761 24.6391 9.45079C24.6111 9.36396 24.5602 9.28633 24.4917 9.22613L21.6723 6.76676C21.5969 6.70269 21.5422 6.61771 21.5152 6.52256C21.4881 6.42741 21.4899 6.32638 21.5203 6.23223C21.5506 6.13809 21.6082 6.05508 21.6858 5.99369C21.7634 5.9323 21.8574 5.89531 21.956 5.88738L25.6723 5.56613C25.763 5.55806 25.8497 5.52538 25.9232 5.47163C25.9966 5.41789 26.054 5.3451 26.0892 5.26113L27.541 1.80113C27.5798 1.71168 27.6439 1.63551 27.7254 1.58201C27.8069 1.52851 27.9023 1.5 27.9998 1.5C28.0973 1.5 28.1927 1.52851 28.2742 1.58201C28.3557 1.63551 28.4198 1.71168 28.4585 1.80113L29.9104 5.26113C29.9456 5.3451 30.0029 5.41789 30.0764 5.47163C30.1499 5.52538 30.2366 5.55806 30.3273 5.56613L34.0435 5.88738C34.1421 5.89531 34.2362 5.9323 34.3137 5.99369C34.3913 6.05508 34.4489 6.13809 34.4793 6.23223C34.5097 6.32638 34.5115 6.42741 34.4844 6.52256C34.4573 6.61771 34.4027 6.70269 34.3273 6.76676L31.5079 9.22613Z" fill="#333333"/>
<path d="M34.9502 6.0805C34.8897 5.89387 34.7755 5.72917 34.6221 5.60692C34.4686 5.48467 34.2825 5.41028 34.0871 5.393L30.3752 5.073L28.9202 1.613C28.8445 1.43145 28.7167 1.27637 28.553 1.16729C28.3893 1.05821 28.1969 1 28.0002 1C27.8035 1 27.6112 1.05821 27.4475 1.16729C27.2837 1.27637 27.156 1.43145 27.0802 1.613L25.6296 5.073L21.9133 5.39488C21.7171 5.41137 21.5301 5.48542 21.3758 5.60776C21.2215 5.7301 21.1067 5.89527 21.0459 6.08257C20.9851 6.26986 20.981 6.47094 21.034 6.66059C21.087 6.85024 21.1948 7.02002 21.344 7.14863L24.1633 9.61238L23.3183 13.2711C23.2737 13.4626 23.2864 13.663 23.355 13.8472C23.4236 14.0315 23.545 14.1914 23.704 14.3071C23.863 14.4227 24.0525 14.489 24.2489 14.4975C24.4454 14.5059 24.6399 14.4564 24.8083 14.3549L27.9958 12.4174L31.1902 14.3549C31.3586 14.4564 31.5532 14.5059 31.7496 14.4975C31.946 14.489 32.1356 14.4227 32.2946 14.3071C32.4536 14.1914 32.575 14.0315 32.6436 13.8472C32.7121 13.663 32.7249 13.4626 32.6802 13.2711L31.8358 9.60863L34.6546 7.14863C34.8037 7.01957 34.9113 6.84931 34.9639 6.65926C35.0165 6.46921 35.0117 6.26785 34.9502 6.0805ZM33.999 6.393L31.1802 8.853C31.043 8.97233 30.941 9.12681 30.885 9.29982C30.8291 9.47283 30.8214 9.65781 30.8627 9.83488L31.7096 13.4999L28.5177 11.5624C28.362 11.4675 28.1832 11.4174 28.0008 11.4174C27.8185 11.4174 27.6397 11.4675 27.484 11.5624L24.2965 13.4999L25.1377 9.83737C25.1791 9.66031 25.1713 9.47533 25.1154 9.30232C25.0595 9.12931 24.9574 8.97483 24.8202 8.8555L22.0002 6.39675C22 6.39488 22 6.39299 22.0002 6.39113L25.7152 6.06988C25.8966 6.05389 26.0702 5.98868 26.2172 5.8813C26.3642 5.77391 26.4792 5.62841 26.5496 5.4605L28.0002 2.00488L29.4502 5.4605C29.5206 5.62841 29.6356 5.77391 29.7826 5.8813C29.9296 5.98868 30.1032 6.05389 30.2846 6.06988L34.0002 6.39113C34.0002 6.39113 34.0002 6.39488 34.0002 6.3955L33.999 6.393Z" fill="#333333"/>
<path d="M51.5079 9.22613C51.4394 9.28633 51.3884 9.36396 51.3605 9.45079C51.3325 9.53761 51.3286 9.63039 51.3492 9.71926L52.1942 13.378C52.2165 13.4736 52.2102 13.5736 52.1761 13.6656C52.142 13.7576 52.0815 13.8376 52.0023 13.8955C51.9231 13.9534 51.8286 13.9867 51.7305 13.9912C51.6325 13.9958 51.5353 13.9714 51.451 13.9211L48.2573 11.9836C48.1797 11.9364 48.0906 11.9115 47.9998 11.9115C47.909 11.9115 47.8199 11.9364 47.7423 11.9836L44.5485 13.9211C44.4643 13.9714 44.3671 13.9958 44.269 13.9912C44.171 13.9867 44.0765 13.9534 43.9973 13.8955C43.918 13.8376 43.8576 13.7576 43.8235 13.6656C43.7894 13.5736 43.7831 13.4736 43.8054 13.378L44.6504 9.71926C44.6709 9.63039 44.667 9.53761 44.6391 9.45079C44.6111 9.36396 44.5602 9.28633 44.4917 9.22613L41.6723 6.76676C41.5969 6.70269 41.5422 6.61771 41.5152 6.52256C41.4881 6.42741 41.4899 6.32638 41.5203 6.23223C41.5506 6.13809 41.6082 6.05508 41.6858 5.99369C41.7634 5.9323 41.8574 5.89531 41.956 5.88738L45.6723 5.56613C45.763 5.55806 45.8497 5.52538 45.9232 5.47163C45.9966 5.41789 46.054 5.3451 46.0892 5.26113L47.541 1.80113C47.5798 1.71168 47.6439 1.63551 47.7254 1.58201C47.8069 1.52851 47.9023 1.5 47.9998 1.5C48.0973 1.5 48.1927 1.52851 48.2742 1.58201C48.3557 1.63551 48.4198 1.71168 48.4585 1.80113L49.9104 5.26113C49.9456 5.3451 50.0029 5.41789 50.0764 5.47163C50.1499 5.52538 50.2366 5.55806 50.3273 5.56613L54.0435 5.88738C54.1421 5.89531 54.2362 5.9323 54.3137 5.99369C54.3913 6.05508 54.4489 6.13809 54.4793 6.23223C54.5097 6.32638 54.5115 6.42741 54.4844 6.52256C54.4573 6.61771 54.4027 6.70269 54.3273 6.76676L51.5079 9.22613Z" fill="#333333"/>
<path d="M54.9502 6.0805C54.8897 5.89387 54.7755 5.72917 54.6221 5.60692C54.4686 5.48467 54.2825 5.41028 54.0871 5.393L50.3752 5.073L48.9202 1.613C48.8445 1.43145 48.7167 1.27637 48.553 1.16729C48.3893 1.05821 48.1969 1 48.0002 1C47.8035 1 47.6112 1.05821 47.4475 1.16729C47.2837 1.27637 47.156 1.43145 47.0802 1.613L45.6296 5.073L41.9133 5.39488C41.7171 5.41137 41.5301 5.48542 41.3758 5.60776C41.2215 5.7301 41.1067 5.89527 41.0459 6.08257C40.9851 6.26986 40.981 6.47094 41.034 6.66059C41.087 6.85024 41.1948 7.02002 41.344 7.14863L44.1633 9.61238L43.3183 13.2711C43.2737 13.4626 43.2864 13.663 43.355 13.8472C43.4236 14.0315 43.545 14.1914 43.704 14.3071C43.863 14.4227 44.0525 14.489 44.2489 14.4975C44.4454 14.5059 44.6399 14.4564 44.8083 14.3549L47.9958 12.4174L51.1902 14.3549C51.3586 14.4564 51.5532 14.5059 51.7496 14.4975C51.946 14.489 52.1356 14.4227 52.2946 14.3071C52.4536 14.1914 52.575 14.0315 52.6436 13.8472C52.7121 13.663 52.7249 13.4626 52.6802 13.2711L51.8358 9.60863L54.6546 7.14863C54.8037 7.01957 54.9113 6.84931 54.9639 6.65926C55.0165 6.46921 55.0117 6.26785 54.9502 6.0805ZM53.999 6.393L51.1802 8.853C51.043 8.97233 50.941 9.12681 50.885 9.29982C50.8291 9.47283 50.8214 9.65781 50.8627 9.83488L51.7096 13.4999L48.5177 11.5624C48.362 11.4675 48.1832 11.4174 48.0008 11.4174C47.8185 11.4174 47.6397 11.4675 47.484 11.5624L44.2965 13.4999L45.1377 9.83737C45.1791 9.66031 45.1713 9.47533 45.1154 9.30232C45.0595 9.12931 44.9574 8.97483 44.8202 8.8555L42.0002 6.39675C42 6.39488 42 6.39299 42.0002 6.39113L45.7152 6.06988C45.8966 6.05389 46.0702 5.98868 46.2172 5.8813C46.3642 5.77391 46.4792 5.62841 46.5496 5.4605L48.0002 2.00488L49.4502 5.4605C49.5206 5.62841 49.6356 5.77391 49.7826 5.8813C49.9296 5.98868 50.1032 6.05389 50.2846 6.06988L54.0002 6.39113C54.0002 6.39113 54.0002 6.39488 54.0002 6.3955L53.999 6.393Z" fill="#333333"/>
<path d="M71.5079 9.22613C71.4394 9.28633 71.3884 9.36396 71.3605 9.45079C71.3325 9.53761 71.3286 9.63039 71.3492 9.71926L72.1942 13.378C72.2165 13.4736 72.2102 13.5736 72.1761 13.6656C72.142 13.7576 72.0815 13.8376 72.0023 13.8955C71.9231 13.9534 71.8286 13.9867 71.7305 13.9912C71.6325 13.9958 71.5353 13.9714 71.451 13.9211L68.2573 11.9836C68.1797 11.9364 68.0906 11.9115 67.9998 11.9115C67.909 11.9115 67.8199 11.9364 67.7423 11.9836L64.5485 13.9211C64.4643 13.9714 64.3671 13.9958 64.269 13.9912C64.171 13.9867 64.0765 13.9534 63.9973 13.8955C63.918 13.8376 63.8576 13.7576 63.8235 13.6656C63.7894 13.5736 63.7831 13.4736 63.8054 13.378L64.6504 9.71926C64.6709 9.63039 64.667 9.53761 64.6391 9.45079C64.6111 9.36396 64.5602 9.28633 64.4917 9.22613L61.6723 6.76676C61.5969 6.70269 61.5422 6.61771 61.5152 6.52256C61.4881 6.42741 61.4899 6.32638 61.5203 6.23223C61.5506 6.13809 61.6082 6.05508 61.6858 5.99369C61.7634 5.9323 61.8574 5.89531 61.956 5.88738L65.6723 5.56613C65.763 5.55806 65.8497 5.52538 65.9232 5.47163C65.9966 5.41789 66.054 5.3451 66.0892 5.26113L67.541 1.80113C67.5798 1.71168 67.6439 1.63551 67.7254 1.58201C67.8069 1.52851 67.9023 1.5 67.9998 1.5C68.0973 1.5 68.1927 1.52851 68.2742 1.58201C68.3557 1.63551 68.4198 1.71168 68.4585 1.80113L69.9104 5.26113C69.9456 5.3451 70.0029 5.41789 70.0764 5.47163C70.1499 5.52538 70.2366 5.55806 70.3273 5.56613L74.0435 5.88738C74.1421 5.89531 74.2362 5.9323 74.3137 5.99369C74.3913 6.05508 74.4489 6.13809 74.4793 6.23223C74.5097 6.32638 74.5115 6.42741 74.4844 6.52256C74.4573 6.61771 74.4027 6.70269 74.3273 6.76676L71.5079 9.22613Z" fill="#333333"/>
<path d="M74.9502 6.0805C74.8897 5.89387 74.7755 5.72917 74.6221 5.60692C74.4686 5.48467 74.2825 5.41028 74.0871 5.393L70.3752 5.073L68.9202 1.613C68.8445 1.43145 68.7167 1.27637 68.553 1.16729C68.3893 1.05821 68.1969 1 68.0002 1C67.8035 1 67.6112 1.05821 67.4475 1.16729C67.2837 1.27637 67.156 1.43145 67.0802 1.613L65.6296 5.073L61.9133 5.39488C61.7171 5.41137 61.5301 5.48542 61.3758 5.60776C61.2215 5.7301 61.1067 5.89527 61.0459 6.08257C60.9851 6.26986 60.981 6.47094 61.034 6.66059C61.087 6.85024 61.1948 7.02002 61.344 7.14863L64.1633 9.61238L63.3183 13.2711C63.2737 13.4626 63.2864 13.663 63.355 13.8472C63.4236 14.0315 63.545 14.1914 63.704 14.3071C63.863 14.4227 64.0525 14.489 64.2489 14.4975C64.4454 14.5059 64.6399 14.4564 64.8083 14.3549L67.9958 12.4174L71.1902 14.3549C71.3586 14.4564 71.5532 14.5059 71.7496 14.4975C71.946 14.489 72.1356 14.4227 72.2946 14.3071C72.4536 14.1914 72.575 14.0315 72.6436 13.8472C72.7121 13.663 72.7249 13.4626 72.6802 13.2711L71.8358 9.60863L74.6546 7.14863C74.8037 7.01957 74.9113 6.84931 74.9639 6.65926C75.0165 6.46921 75.0117 6.26785 74.9502 6.0805ZM73.999 6.393L71.1802 8.853C71.043 8.97233 70.941 9.12681 70.885 9.29982C70.8291 9.47283 70.8214 9.65781 70.8627 9.83488L71.7096 13.4999L68.5177 11.5624C68.362 11.4675 68.1832 11.4174 68.0008 11.4174C67.8185 11.4174 67.6397 11.4675 67.484 11.5624L64.2965 13.4999L65.1377 9.83737C65.1791 9.66031 65.1713 9.47533 65.1154 9.30232C65.0595 9.12931 64.9574 8.97483 64.8202 8.8555L62.0002 6.39675C62 6.39488 62 6.39299 62.0002 6.39113L65.7152 6.06988C65.8966 6.05389 66.0702 5.98868 66.2172 5.8813C66.3642 5.77391 66.4792 5.62841 66.5496 5.4605L68.0002 2.00488L69.4502 5.4605C69.5206 5.62841 69.6356 5.77391 69.7826 5.8813C69.9296 5.98868 70.1032 6.05389 70.2846 6.06988L74.0002 6.39113C74.0002 6.39113 74.0002 6.39488 74.0002 6.3955L73.999 6.393Z" fill="#333333"/>
<path d="M87.9104 7.22613C87.8419 7.28633 87.9384 7.36396 87.9104 7.45079C87.8825 7.53761 87.8899 7.63039 87.9104 7.71926V11.378C87.9327 11.4736 87.9445 11.5736 87.9104 11.6656C87.8763 11.7576 87.9896 11.8376 87.9104 11.8955C87.8312 11.9534 88.0084 11.9867 87.9104 11.9912C87.8124 11.9958 87.9947 11.9714 87.9104 11.9211L87.9998 11.9836C87.9222 11.9364 88.0906 11.9115 87.9998 11.9115C87.909 11.9115 87.8199 11.9364 87.7423 11.9836L84.5485 13.9211C84.4643 13.9714 84.3671 13.9958 84.269 13.9912C84.171 13.9867 84.0765 13.9534 83.9973 13.8955C83.918 13.8376 83.8576 13.7576 83.8235 13.6656C83.7894 13.5736 83.7831 13.4736 83.8054 13.378L84.6504 9.71926C84.6709 9.63039 84.667 9.53761 84.6391 9.45079C84.6111 9.36396 84.5602 9.28633 84.4917 9.22613L81.6723 6.76676C81.5969 6.70269 81.5422 6.61771 81.5152 6.52256C81.4881 6.42741 81.4899 6.32638 81.5203 6.23223C81.5506 6.13809 81.6082 6.05507 81.6858 5.99369C81.7634 5.9323 81.8574 5.89531 81.956 5.88738L85.6723 5.56613C85.763 5.55806 85.8497 5.52538 85.9232 5.47163C85.9966 5.41788 86.054 5.3451 86.0892 5.26113L87.541 1.80113C87.5798 1.71168 87.6439 1.63551 87.7254 1.58201C87.8069 1.52851 87.9023 1.5 87.9998 1.5C88.0973 1.5 87.9183 1.52851 87.9998 1.58201C88.0813 1.63551 87.961 1.71168 87.9998 1.80113L87.9104 3.26113C87.9456 3.3451 87.8369 3.41788 87.9104 3.47163C87.9839 3.52538 87.8197 3.55806 87.9104 3.56613V3.88738C88.009 3.89531 87.8328 3.9323 87.9104 3.99369C87.988 4.05507 87.88 4.13809 87.9104 4.23223C87.9408 4.32638 87.9375 4.42741 87.9104 4.52256C87.8833 4.61771 87.9858 4.70269 87.9104 4.76676V7.22613Z" fill="#333333"/>
<path d="M94.9502 6.0805C94.8897 5.89387 94.7755 5.72917 94.6221 5.60692C94.4686 5.48467 94.2825 5.41028 94.0871 5.393L90.3752 5.073L88.9202 1.613C88.8445 1.43145 88.7167 1.27637 88.553 1.16729C88.3893 1.05821 88.1969 1 88.0002 1C87.8035 1 87.6112 1.05821 87.4475 1.16729C87.2837 1.27637 87.156 1.43145 87.0802 1.613L85.6296 5.073L81.9133 5.39488C81.7171 5.41137 81.5301 5.48542 81.3758 5.60776C81.2215 5.7301 81.1067 5.89527 81.0459 6.08257C80.9851 6.26986 80.981 6.47094 81.034 6.66059C81.087 6.85024 81.1948 7.02002 81.344 7.14863L84.1633 9.61238L83.3183 13.2711C83.2737 13.4626 83.2864 13.663 83.355 13.8472C83.4236 14.0315 83.545 14.1914 83.704 14.3071C83.863 14.4227 84.0525 14.489 84.2489 14.4975C84.4454 14.5059 84.6399 14.4564 84.8083 14.3549L87.9958 12.4174L91.1902 14.3549C91.3586 14.4564 91.5532 14.5059 91.7496 14.4975C91.946 14.489 92.1356 14.4227 92.2946 14.3071C92.4536 14.1914 92.575 14.0315 92.6436 13.8472C92.7121 13.663 92.7249 13.4626 92.6802 13.2711L91.8358 9.60863L94.6546 7.14863C94.8037 7.01957 94.9113 6.84931 94.9639 6.65926C95.0165 6.46921 95.0117 6.26785 94.9502 6.0805ZM93.999 6.393L91.1802 8.853C91.043 8.97233 90.941 9.12681 90.885 9.29982C90.8291 9.47283 90.8214 9.65781 90.8627 9.83488L91.7096 13.4999L88.5177 11.5624C88.362 11.4675 88.1832 11.4174 88.0008 11.4174C87.8185 11.4174 87.6397 11.4675 87.484 11.5624L84.2965 13.4999L85.1377 9.83737C85.1791 9.66031 85.1713 9.47533 85.1154 9.30232C85.0595 9.12931 84.9574 8.97483 84.8202 8.8555L82.0002 6.39675C82 6.39488 82 6.39299 82.0002 6.39113L85.7152 6.06988C85.8966 6.05389 86.0702 5.98868 86.2172 5.8813C86.3642 5.77391 86.4792 5.62841 86.5496 5.4605L88.0002 2.00488L89.4502 5.4605C89.5206 5.62841 89.6356 5.77391 89.7826 5.8813C89.9296 5.98868 90.1032 6.05389 90.2846 6.06988L94.0002 6.39113C94.0002 6.39113 94.0002 6.39488 94.0002 6.3955L93.999 6.393Z" fill="#333333"/>
</svg>
