<svg width="96" height="16" viewBox="0 0 96 16" fill="none" xmlns="http://www.w3.org/2000/svg">
<path d="M11.5079 9.22931C11.4394 9.2895 11.3884 9.36714 11.3605 9.45396C11.3325 9.54079 11.3286 9.63356 11.3492 9.72243L12.1942 13.3812C12.2165 13.4767 12.2102 13.5768 12.1761 13.6688C12.142 13.7608 12.0815 13.8407 12.0023 13.8986C11.9231 13.9565 11.8286 13.9899 11.7305 13.9944C11.6325 13.999 11.5353 13.9746 11.451 13.9243L8.25729 11.9868C8.17968 11.9396 8.09061 11.9147 7.99979 11.9147C7.90896 11.9147 7.81989 11.9396 7.74229 11.9868L4.54853 13.9243C4.46427 13.9746 4.36706 13.999 4.26903 13.9944C4.17101 13.9899 4.07649 13.9565 3.99726 13.8986C3.91803 13.8407 3.85759 13.7608 3.82348 13.6688C3.78936 13.5768 3.78308 13.4767 3.80541 13.3812L4.65041 9.72243C4.67095 9.63356 4.66704 9.54079 4.63908 9.45396C4.61113 9.36714 4.56019 9.2895 4.49166 9.22931L1.67228 6.76993C1.59691 6.70587 1.54223 6.62088 1.51517 6.52574C1.48811 6.43059 1.48988 6.32955 1.52025 6.23541C1.55063 6.14127 1.60825 6.05825 1.68582 5.99686C1.76339 5.93548 1.85743 5.89848 1.95603 5.89056L5.67229 5.56931C5.76295 5.56123 5.84969 5.52856 5.92316 5.47481C5.99662 5.42106 6.05402 5.34828 6.08916 5.26431L7.54104 1.80431C7.57981 1.71485 7.6439 1.63869 7.72541 1.58518C7.80692 1.53168 7.90229 1.50317 7.99979 1.50317C8.09728 1.50317 8.19266 1.53168 8.27416 1.58518C8.35567 1.63869 8.41976 1.71485 8.45854 1.80431L9.91041 5.26431C9.94555 5.34828 10.0029 5.42106 10.0764 5.47481C10.1499 5.52856 10.2366 5.56123 10.3273 5.56931L14.0435 5.89056C14.1421 5.89848 14.2362 5.93548 14.3137 5.99686C14.3913 6.05825 14.4489 6.14127 14.4793 6.23541C14.5097 6.32955 14.5115 6.43059 14.4844 6.52574C14.4573 6.62088 14.4027 6.70587 14.3273 6.76993L11.5079 9.22931Z" fill="#F4B049"/>
<path d="M14.9502 6.0805C14.8897 5.89387 14.7755 5.72917 14.6221 5.60692C14.4686 5.48467 14.2825 5.41028 14.0871 5.393L10.3752 5.073L8.92021 1.613C8.84446 1.43145 8.71668 1.27637 8.55297 1.16729C8.38926 1.05821 8.19693 1 8.00021 1C7.80349 1 7.61116 1.05821 7.44745 1.16729C7.28374 1.27637 7.15596 1.43145 7.08021 1.613L5.62958 5.073L1.91333 5.39488C1.71711 5.41137 1.53011 5.48542 1.37581 5.60776C1.2215 5.7301 1.10675 5.89527 1.04594 6.08257C0.985134 6.26986 0.980978 6.47094 1.03399 6.66059C1.08701 6.85024 1.19484 7.02002 1.34396 7.14863L4.16333 9.61238L3.31833 13.2711C3.27365 13.4626 3.2864 13.663 3.35499 13.8472C3.42358 14.0315 3.54496 14.1914 3.70396 14.3071C3.86296 14.4227 4.05252 14.489 4.24894 14.4975C4.44537 14.5059 4.63994 14.4564 4.80833 14.3549L7.99584 12.4174L11.1902 14.3549C11.3586 14.4564 11.5532 14.5059 11.7496 14.4975C11.946 14.489 12.1356 14.4227 12.2946 14.3071C12.4536 14.1914 12.575 14.0315 12.6436 13.8472C12.7121 13.663 12.7249 13.4626 12.6802 13.2711L11.8358 9.60863L14.6546 7.14863C14.8037 7.01957 14.9113 6.84931 14.9639 6.65926C15.0165 6.46921 15.0117 6.26785 14.9502 6.0805ZM13.999 6.393L11.1802 8.853C11.043 8.97233 10.941 9.12681 10.885 9.29982C10.8291 9.47283 10.8214 9.65781 10.8627 9.83488L11.7096 13.4999L8.51771 11.5624C8.36198 11.4675 8.18317 11.4174 8.00083 11.4174C7.8185 11.4174 7.63969 11.4675 7.48396 11.5624L4.29646 13.4999L5.13771 9.83737C5.17905 9.66031 5.17134 9.47533 5.1154 9.30232C5.05945 9.12931 4.9574 8.97483 4.82021 8.8555L2.00021 6.39675C1.99998 6.39488 1.99998 6.39299 2.00021 6.39113L5.71521 6.06988C5.89659 6.05389 6.07016 5.98868 6.21719 5.8813C6.36423 5.77391 6.47916 5.62841 6.54958 5.4605L8.00021 2.00488L9.45021 5.4605C9.52063 5.62841 9.63556 5.77391 9.7826 5.8813C9.92964 5.98868 10.1032 6.05389 10.2846 6.06988L14.0002 6.39113C14.0002 6.39113 14.0002 6.39488 14.0002 6.3955L13.999 6.393Z" fill="#F4B049"/>
<path d="M31.5079 9.22931C31.4394 9.2895 31.3884 9.36714 31.3605 9.45396C31.3325 9.54079 31.3286 9.63356 31.3492 9.72243L32.1942 13.3812C32.2165 13.4767 32.2102 13.5768 32.1761 13.6688C32.142 13.7608 32.0815 13.8407 32.0023 13.8986C31.9231 13.9565 31.8286 13.9899 31.7305 13.9944C31.6325 13.999 31.5353 13.9746 31.451 13.9243L28.2573 11.9868C28.1797 11.9396 28.0906 11.9147 27.9998 11.9147C27.909 11.9147 27.8199 11.9396 27.7423 11.9868L24.5485 13.9243C24.4643 13.9746 24.3671 13.999 24.269 13.9944C24.171 13.9899 24.0765 13.9565 23.9973 13.8986C23.918 13.8407 23.8576 13.7608 23.8235 13.6688C23.7894 13.5768 23.7831 13.4767 23.8054 13.3812L24.6504 9.72243C24.6709 9.63356 24.667 9.54079 24.6391 9.45396C24.6111 9.36714 24.5602 9.2895 24.4917 9.22931L21.6723 6.76993C21.5969 6.70587 21.5422 6.62088 21.5152 6.52574C21.4881 6.43059 21.4899 6.32955 21.5203 6.23541C21.5506 6.14127 21.6082 6.05825 21.6858 5.99686C21.7634 5.93548 21.8574 5.89848 21.956 5.89056L25.6723 5.56931C25.763 5.56123 25.8497 5.52856 25.9232 5.47481C25.9966 5.42106 26.054 5.34828 26.0892 5.26431L27.541 1.80431C27.5798 1.71485 27.6439 1.63869 27.7254 1.58518C27.8069 1.53168 27.9023 1.50317 27.9998 1.50317C28.0973 1.50317 28.1927 1.53168 28.2742 1.58518C28.3557 1.63869 28.4198 1.71485 28.4585 1.80431L29.9104 5.26431C29.9456 5.34828 30.0029 5.42106 30.0764 5.47481C30.1499 5.52856 30.2366 5.56123 30.3273 5.56931L34.0435 5.89056C34.1421 5.89848 34.2362 5.93548 34.3137 5.99686C34.3913 6.05825 34.4489 6.14127 34.4793 6.23541C34.5097 6.32955 34.5115 6.43059 34.4844 6.52574C34.4573 6.62088 34.4027 6.70587 34.3273 6.76993L31.5079 9.22931Z" fill="#F4B049"/>
<path d="M34.9502 6.0805C34.8897 5.89387 34.7755 5.72917 34.6221 5.60692C34.4686 5.48467 34.2825 5.41028 34.0871 5.393L30.3752 5.073L28.9202 1.613C28.8445 1.43145 28.7167 1.27637 28.553 1.16729C28.3893 1.05821 28.1969 1 28.0002 1C27.8035 1 27.6112 1.05821 27.4475 1.16729C27.2837 1.27637 27.156 1.43145 27.0802 1.613L25.6296 5.073L21.9133 5.39488C21.7171 5.41137 21.5301 5.48542 21.3758 5.60776C21.2215 5.7301 21.1067 5.89527 21.0459 6.08257C20.9851 6.26986 20.981 6.47094 21.034 6.66059C21.087 6.85024 21.1948 7.02002 21.344 7.14863L24.1633 9.61238L23.3183 13.2711C23.2737 13.4626 23.2864 13.663 23.355 13.8472C23.4236 14.0315 23.545 14.1914 23.704 14.3071C23.863 14.4227 24.0525 14.489 24.2489 14.4975C24.4454 14.5059 24.6399 14.4564 24.8083 14.3549L27.9958 12.4174L31.1902 14.3549C31.3586 14.4564 31.5532 14.5059 31.7496 14.4975C31.946 14.489 32.1356 14.4227 32.2946 14.3071C32.4536 14.1914 32.575 14.0315 32.6436 13.8472C32.7121 13.663 32.7249 13.4626 32.6802 13.2711L31.8358 9.60863L34.6546 7.14863C34.8037 7.01957 34.9113 6.84931 34.9639 6.65926C35.0165 6.46921 35.0117 6.26785 34.9502 6.0805ZM33.999 6.393L31.1802 8.853C31.043 8.97233 30.941 9.12681 30.885 9.29982C30.8291 9.47283 30.8214 9.65781 30.8627 9.83488L31.7096 13.4999L28.5177 11.5624C28.362 11.4675 28.1832 11.4174 28.0008 11.4174C27.8185 11.4174 27.6397 11.4675 27.484 11.5624L24.2965 13.4999L25.1377 9.83737C25.1791 9.66031 25.1713 9.47533 25.1154 9.30232C25.0595 9.12931 24.9574 8.97483 24.8202 8.8555L22.0002 6.39675C22 6.39488 22 6.39299 22.0002 6.39113L25.7152 6.06988C25.8966 6.05389 26.0702 5.98868 26.2172 5.8813C26.3642 5.77391 26.4792 5.62841 26.5496 5.4605L28.0002 2.00488L29.4502 5.4605C29.5206 5.62841 29.6356 5.77391 29.7826 5.8813C29.9296 5.98868 30.1032 6.05389 30.2846 6.06988L34.0002 6.39113C34.0002 6.39113 34.0002 6.39488 34.0002 6.3955L33.999 6.393Z" fill="#F4B049"/>
<path d="M51.5079 9.22931C51.4394 9.2895 51.3884 9.36714 51.3605 9.45396C51.3325 9.54079 51.3286 9.63356 51.3492 9.72243L52.1942 13.3812C52.2165 13.4767 52.2102 13.5768 52.1761 13.6688C52.142 13.7608 52.0815 13.8407 52.0023 13.8986C51.9231 13.9565 51.8286 13.9899 51.7305 13.9944C51.6325 13.999 51.5353 13.9746 51.451 13.9243L48.2573 11.9868C48.1797 11.9396 48.0906 11.9147 47.9998 11.9147C47.909 11.9147 47.8199 11.9396 47.7423 11.9868L44.5485 13.9243C44.4643 13.9746 44.3671 13.999 44.269 13.9944C44.171 13.9899 44.0765 13.9565 43.9973 13.8986C43.918 13.8407 43.8576 13.7608 43.8235 13.6688C43.7894 13.5768 43.7831 13.4767 43.8054 13.3812L44.6504 9.72243C44.6709 9.63356 44.667 9.54079 44.6391 9.45396C44.6111 9.36714 44.5602 9.2895 44.4917 9.22931L41.6723 6.76993C41.5969 6.70587 41.5422 6.62088 41.5152 6.52574C41.4881 6.43059 41.4899 6.32955 41.5203 6.23541C41.5506 6.14127 41.6082 6.05825 41.6858 5.99686C41.7634 5.93548 41.8574 5.89848 41.956 5.89056L45.6723 5.56931C45.763 5.56123 45.8497 5.52856 45.9232 5.47481C45.9966 5.42106 46.054 5.34828 46.0892 5.26431L47.541 1.80431C47.5798 1.71485 47.6439 1.63869 47.7254 1.58518C47.8069 1.53168 47.9023 1.50317 47.9998 1.50317C48.0973 1.50317 48.1927 1.53168 48.2742 1.58518C48.3557 1.63869 48.4198 1.71485 48.4585 1.80431L49.9104 5.26431C49.9456 5.34828 50.0029 5.42106 50.0764 5.47481C50.1499 5.52856 50.2366 5.56123 50.3273 5.56931L54.0435 5.89056C54.1421 5.89848 54.2362 5.93548 54.3137 5.99686C54.3913 6.05825 54.4489 6.14127 54.4793 6.23541C54.5097 6.32955 54.5115 6.43059 54.4844 6.52574C54.4573 6.62088 54.4027 6.70587 54.3273 6.76993L51.5079 9.22931Z" fill="#F4B049"/>
<path d="M54.9502 6.0805C54.8897 5.89387 54.7755 5.72917 54.6221 5.60692C54.4686 5.48467 54.2825 5.41028 54.0871 5.393L50.3752 5.073L48.9202 1.613C48.8445 1.43145 48.7167 1.27637 48.553 1.16729C48.3893 1.05821 48.1969 1 48.0002 1C47.8035 1 47.6112 1.05821 47.4475 1.16729C47.2837 1.27637 47.156 1.43145 47.0802 1.613L45.6296 5.073L41.9133 5.39488C41.7171 5.41137 41.5301 5.48542 41.3758 5.60776C41.2215 5.7301 41.1067 5.89527 41.0459 6.08257C40.9851 6.26986 40.981 6.47094 41.034 6.66059C41.087 6.85024 41.1948 7.02002 41.344 7.14863L44.1633 9.61238L43.3183 13.2711C43.2737 13.4626 43.2864 13.663 43.355 13.8472C43.4236 14.0315 43.545 14.1914 43.704 14.3071C43.863 14.4227 44.0525 14.489 44.2489 14.4975C44.4454 14.5059 44.6399 14.4564 44.8083 14.3549L47.9958 12.4174L51.1902 14.3549C51.3586 14.4564 51.5532 14.5059 51.7496 14.4975C51.946 14.489 52.1356 14.4227 52.2946 14.3071C52.4536 14.1914 52.575 14.0315 52.6436 13.8472C52.7121 13.663 52.7249 13.4626 52.6802 13.2711L51.8358 9.60863L54.6546 7.14863C54.8037 7.01957 54.9113 6.84931 54.9639 6.65926C55.0165 6.46921 55.0117 6.26785 54.9502 6.0805ZM53.999 6.393L51.1802 8.853C51.043 8.97233 50.941 9.12681 50.885 9.29982C50.8291 9.47283 50.8214 9.65781 50.8627 9.83488L51.7096 13.4999L48.5177 11.5624C48.362 11.4675 48.1832 11.4174 48.0008 11.4174C47.8185 11.4174 47.6397 11.4675 47.484 11.5624L44.2965 13.4999L45.1377 9.83737C45.1791 9.66031 45.1713 9.47533 45.1154 9.30232C45.0595 9.12931 44.9574 8.97483 44.8202 8.8555L42.0002 6.39675C42 6.39488 42 6.39299 42.0002 6.39113L45.7152 6.06988C45.8966 6.05389 46.0702 5.98868 46.2172 5.8813C46.3642 5.77391 46.4792 5.62841 46.5496 5.4605L48.0002 2.00488L49.4502 5.4605C49.5206 5.62841 49.6356 5.77391 49.7826 5.8813C49.9296 5.98868 50.1032 6.05389 50.2846 6.06988L54.0002 6.39113C54.0002 6.39113 54.0002 6.39488 54.0002 6.3955L53.999 6.393Z" fill="#F4B049"/>
<path d="M71.5079 9.22931C71.4394 9.2895 71.3884 9.36714 71.3605 9.45396C71.3325 9.54079 71.3286 9.63356 71.3492 9.72243L72.1942 13.3812C72.2165 13.4767 72.2102 13.5768 72.1761 13.6688C72.142 13.7608 72.0815 13.8407 72.0023 13.8986C71.9231 13.9565 71.8286 13.9899 71.7305 13.9944C71.6325 13.999 71.5353 13.9746 71.451 13.9243L68.2573 11.9868C68.1797 11.9396 68.0906 11.9147 67.9998 11.9147C67.909 11.9147 67.8199 11.9396 67.7423 11.9868L64.5485 13.9243C64.4643 13.9746 64.3671 13.999 64.269 13.9944C64.171 13.9899 64.0765 13.9565 63.9973 13.8986C63.918 13.8407 63.8576 13.7608 63.8235 13.6688C63.7894 13.5768 63.7831 13.4767 63.8054 13.3812L64.6504 9.72243C64.6709 9.63356 64.667 9.54079 64.6391 9.45396C64.6111 9.36714 64.5602 9.2895 64.4917 9.22931L61.6723 6.76993C61.5969 6.70587 61.5422 6.62088 61.5152 6.52574C61.4881 6.43059 61.4899 6.32955 61.5203 6.23541C61.5506 6.14127 61.6082 6.05825 61.6858 5.99686C61.7634 5.93548 61.8574 5.89848 61.956 5.89056L65.6723 5.56931C65.763 5.56123 65.8497 5.52856 65.9232 5.47481C65.9966 5.42106 66.054 5.34828 66.0892 5.26431L67.541 1.80431C67.5798 1.71485 67.6439 1.63869 67.7254 1.58518C67.8069 1.53168 67.9023 1.50317 67.9998 1.50317C68.0973 1.50317 68.1927 1.53168 68.2742 1.58518C68.3557 1.63869 68.4198 1.71485 68.4585 1.80431L69.9104 5.26431C69.9456 5.34828 70.0029 5.42106 70.0764 5.47481C70.1499 5.52856 70.2366 5.56123 70.3273 5.56931L74.0435 5.89056C74.1421 5.89848 74.2362 5.93548 74.3137 5.99686C74.3913 6.05825 74.4489 6.14127 74.4793 6.23541C74.5097 6.32955 74.5115 6.43059 74.4844 6.52574C74.4573 6.62088 74.4027 6.70587 74.3273 6.76993L71.5079 9.22931Z" fill="#F4B049"/>
<path d="M74.9502 6.0805C74.8897 5.89387 74.7755 5.72917 74.6221 5.60692C74.4686 5.48467 74.2825 5.41028 74.0871 5.393L70.3752 5.073L68.9202 1.613C68.8445 1.43145 68.7167 1.27637 68.553 1.16729C68.3893 1.05821 68.1969 1 68.0002 1C67.8035 1 67.6112 1.05821 67.4475 1.16729C67.2837 1.27637 67.156 1.43145 67.0802 1.613L65.6296 5.073L61.9133 5.39488C61.7171 5.41137 61.5301 5.48542 61.3758 5.60776C61.2215 5.7301 61.1067 5.89527 61.0459 6.08257C60.9851 6.26986 60.981 6.47094 61.034 6.66059C61.087 6.85024 61.1948 7.02002 61.344 7.14863L64.1633 9.61238L63.3183 13.2711C63.2737 13.4626 63.2864 13.663 63.355 13.8472C63.4236 14.0315 63.545 14.1914 63.704 14.3071C63.863 14.4227 64.0525 14.489 64.2489 14.4975C64.4454 14.5059 64.6399 14.4564 64.8083 14.3549L67.9958 12.4174L71.1902 14.3549C71.3586 14.4564 71.5532 14.5059 71.7496 14.4975C71.946 14.489 72.1356 14.4227 72.2946 14.3071C72.4536 14.1914 72.575 14.0315 72.6436 13.8472C72.7121 13.663 72.7249 13.4626 72.6802 13.2711L71.8358 9.60863L74.6546 7.14863C74.8037 7.01957 74.9113 6.84931 74.9639 6.65926C75.0165 6.46921 75.0117 6.26785 74.9502 6.0805ZM73.999 6.393L71.1802 8.853C71.043 8.97233 70.941 9.12681 70.885 9.29982C70.8291 9.47283 70.8214 9.65781 70.8627 9.83488L71.7096 13.4999L68.5177 11.5624C68.362 11.4675 68.1832 11.4174 68.0008 11.4174C67.8185 11.4174 67.6397 11.4675 67.484 11.5624L64.2965 13.4999L65.1377 9.83737C65.1791 9.66031 65.1713 9.47533 65.1154 9.30232C65.0595 9.12931 64.9574 8.97483 64.8202 8.8555L62.0002 6.39675C62 6.39488 62 6.39299 62.0002 6.39113L65.7152 6.06988C65.8966 6.05389 66.0702 5.98868 66.2172 5.8813C66.3642 5.77391 66.4792 5.62841 66.5496 5.4605L68.0002 2.00488L69.4502 5.4605C69.5206 5.62841 69.6356 5.77391 69.7826 5.8813C69.9296 5.98868 70.1032 6.05389 70.2846 6.06988L74.0002 6.39113C74.0002 6.39113 74.0002 6.39488 74.0002 6.3955L73.999 6.393Z" fill="#F4B049"/>
<path d="M87.9104 7.22931C87.8419 7.2895 87.9384 7.36714 87.9104 7.45396C87.8825 7.54079 87.8899 7.63356 87.9104 7.72243V11.3812C87.9327 11.4767 87.9445 11.5768 87.9104 11.6688C87.8763 11.7608 87.9896 11.8407 87.9104 11.8986C87.8312 11.9565 88.0084 11.9899 87.9104 11.9944C87.8124 11.999 87.9947 11.9746 87.9104 11.9243L87.9998 11.9868C87.9222 11.9396 88.0906 11.9147 87.9998 11.9147C87.909 11.9147 87.8199 11.9396 87.7423 11.9868L84.5485 13.9243C84.4643 13.9746 84.3671 13.999 84.269 13.9944C84.171 13.9899 84.0765 13.9565 83.9973 13.8986C83.918 13.8407 83.8576 13.7608 83.8235 13.6688C83.7894 13.5768 83.7831 13.4767 83.8054 13.3812L84.6504 9.72243C84.6709 9.63356 84.667 9.54078 84.6391 9.45396C84.6111 9.36714 84.5602 9.2895 84.4917 9.22931L81.6723 6.76993C81.5969 6.70587 81.5422 6.62088 81.5152 6.52574C81.4881 6.43059 81.4899 6.32955 81.5203 6.23541C81.5506 6.14126 81.6082 6.05825 81.6858 5.99686C81.7634 5.93548 81.8574 5.89848 81.956 5.89056L85.6723 5.56931C85.763 5.56123 85.8497 5.52856 85.9232 5.47481C85.9966 5.42106 86.054 5.34828 86.0892 5.26431L87.541 1.80431C87.5798 1.71485 87.6439 1.63869 87.7254 1.58518C87.8069 1.53168 87.9023 1.50317 87.9998 1.50317C88.0973 1.50317 87.9183 1.53168 87.9998 1.58518C88.0813 1.63869 87.961 1.71485 87.9998 1.80431L87.9104 3.26431C87.9456 3.34828 87.8369 3.42106 87.9104 3.47481C87.9839 3.52856 87.8197 3.56123 87.9104 3.56931V3.89056C88.009 3.89848 87.8328 3.93548 87.9104 3.99686C87.988 4.05825 87.88 4.14126 87.9104 4.23541C87.9408 4.32955 87.9375 4.43059 87.9104 4.52574C87.8833 4.62088 87.9858 4.70587 87.9104 4.76993V7.22931Z" fill="#F4B049"/>
<path d="M94.9502 6.0805C94.8897 5.89387 94.7755 5.72917 94.6221 5.60692C94.4686 5.48467 94.2825 5.41028 94.0871 5.393L90.3752 5.073L88.9202 1.613C88.8445 1.43145 88.7167 1.27637 88.553 1.16729C88.3893 1.05821 88.1969 1 88.0002 1C87.8035 1 87.6112 1.05821 87.4475 1.16729C87.2837 1.27637 87.156 1.43145 87.0802 1.613L85.6296 5.073L81.9133 5.39488C81.7171 5.41137 81.5301 5.48542 81.3758 5.60776C81.2215 5.7301 81.1067 5.89527 81.0459 6.08257C80.9851 6.26986 80.981 6.47094 81.034 6.66059C81.087 6.85024 81.1948 7.02002 81.344 7.14863L84.1633 9.61238L83.3183 13.2711C83.2737 13.4626 83.2864 13.663 83.355 13.8472C83.4236 14.0315 83.545 14.1914 83.704 14.3071C83.863 14.4227 84.0525 14.489 84.2489 14.4975C84.4454 14.5059 84.6399 14.4564 84.8083 14.3549L87.9958 12.4174L91.1902 14.3549C91.3586 14.4564 91.5532 14.5059 91.7496 14.4975C91.946 14.489 92.1356 14.4227 92.2946 14.3071C92.4536 14.1914 92.575 14.0315 92.6436 13.8472C92.7121 13.663 92.7249 13.4626 92.6802 13.2711L91.8358 9.60863L94.6546 7.14863C94.8037 7.01957 94.9113 6.84931 94.9639 6.65926C95.0165 6.46921 95.0117 6.26785 94.9502 6.0805ZM93.999 6.393L91.1802 8.853C91.043 8.97233 90.941 9.12681 90.885 9.29982C90.8291 9.47283 90.8214 9.65781 90.8627 9.83488L91.7096 13.4999L88.5177 11.5624C88.362 11.4675 88.1832 11.4174 88.0008 11.4174C87.8185 11.4174 87.6397 11.4675 87.484 11.5624L84.2965 13.4999L85.1377 9.83737C85.1791 9.66031 85.1713 9.47533 85.1154 9.30232C85.0595 9.12931 84.9574 8.97483 84.8202 8.8555L82.0002 6.39675C82 6.39488 82 6.39299 82.0002 6.39113L85.7152 6.06988C85.8966 6.05389 86.0702 5.98868 86.2172 5.8813C86.3642 5.77391 86.4792 5.62841 86.5496 5.4605L88.0002 2.00488L89.4502 5.4605C89.5206 5.62841 89.6356 5.77391 89.7826 5.8813C89.9296 5.98868 90.1032 6.05389 90.2846 6.06988L94.0002 6.39113C94.0002 6.39113 94.0002 6.39488 94.0002 6.3955L93.999 6.393Z" fill="#F4B049"/>
</svg>
