<svg width="32" height="32" viewBox="0 0 32 32" fill="none" xmlns="http://www.w3.org/2000/svg">
<path d="M25.5145 24.4589L20.8214 19.7657C22.1843 18.1311 22.8646 16.034 22.7206 13.9106C22.5767 11.7872 21.6197 9.80109 20.0486 8.36536C18.4776 6.92963 16.4135 6.15487 14.2858 6.20225C12.158 6.24963 10.1305 7.11551 8.62492 8.61975C7.11935 10.124 6.25168 12.1508 6.20241 14.2785C6.15315 16.4062 6.92609 18.4709 8.36043 20.0432C9.79477 21.6156 11.7801 22.5743 13.9033 22.7201C16.0266 22.8659 18.1243 22.1875 19.7601 20.8261L24.4533 25.5201C24.5229 25.5898 24.6057 25.6451 24.6967 25.6828C24.7878 25.7205 24.8853 25.7399 24.9839 25.7399C25.0824 25.7399 25.18 25.7205 25.2711 25.6828C25.3621 25.6451 25.4448 25.5898 25.5145 25.5201C25.5842 25.4504 25.6395 25.3677 25.6772 25.2767C25.7149 25.1856 25.7343 25.088 25.7343 24.9895C25.7343 24.891 25.7149 24.7934 25.6772 24.7023C25.6395 24.6113 25.5842 24.5286 25.5145 24.4589ZM7.73388 14.4895C7.73388 13.1545 8.12977 11.8494 8.87146 10.7394C9.61316 9.62937 10.6674 8.7642 11.9008 8.25331C13.1342 7.74242 14.4914 7.60875 15.8007 7.8692C17.1101 8.12965 18.3129 8.77252 19.2569 9.71653C20.2009 10.6605 20.8437 11.8633 21.1042 13.1726C21.3646 14.482 21.231 15.8392 20.7201 17.0726C20.2092 18.306 19.344 19.3602 18.234 20.1019C17.124 20.8436 15.8189 21.2395 14.4839 21.2395C12.6943 21.2375 10.9785 20.5257 9.71311 19.2603C8.44767 17.9948 7.73587 16.2791 7.73388 14.4895Z" fill="#333333"/>
</svg>
