<svg width="16" height="16" viewBox="0 0 16 16" fill="none" xmlns="http://www.w3.org/2000/svg">
<path d="M14.625 10.9925C14.4842 11.152 14.3111 11.2798 14.1171 11.3673C13.9231 11.4548 13.7128 11.5 13.5 11.5H10V12.5C10 13.163 9.73661 13.7989 9.26777 14.2678C8.79893 14.7366 8.16304 15 7.5 15C7.40711 15.0001 7.31604 14.9743 7.237 14.9255C7.15795 14.8767 7.09407 14.8068 7.0525 14.7237L4.69125 10H2C1.73478 10 1.48043 9.89464 1.29289 9.70711C1.10536 9.51957 1 9.26522 1 9V3.5C1 3.23478 1.10536 2.98043 1.29289 2.79289C1.48043 2.60536 1.73478 2.5 2 2.5H12.75C13.1154 2.49987 13.4684 2.63316 13.7425 2.87483C14.0166 3.1165 14.1931 3.44993 14.2388 3.8125L14.9888 9.8125C15.0153 10.0237 14.9966 10.2382 14.9339 10.4417C14.8712 10.6451 14.7659 10.8329 14.625 10.9925ZM2 9H4.5V3.5H2V9ZM13.9963 9.9375L13.2463 3.9375C13.231 3.81664 13.1722 3.7055 13.0808 3.62494C12.9895 3.54439 12.8718 3.49996 12.75 3.5H5.5V9.38188L7.79437 13.9712C8.13443 13.9032 8.4404 13.7194 8.66021 13.4512C8.88002 13.1829 9.0001 12.8468 9 12.5V11C9 10.8674 9.05268 10.7402 9.14645 10.6464C9.24021 10.5527 9.36739 10.5 9.5 10.5H13.5C13.571 10.5 13.6411 10.4849 13.7058 10.4558C13.7704 10.4266 13.8282 10.384 13.8751 10.3308C13.9221 10.2776 13.9571 10.215 13.978 10.1472C13.9989 10.0794 14.0051 10.0079 13.9963 9.9375Z" fill="#333333"/>
</svg>
