<svg width="24" height="24" viewBox="0 0 24 24" fill="none" xmlns="http://www.w3.org/2000/svg">
<path d="M19.8299 19.7477L19.8485 19.8965C19.7453 19.9095 19.6404 19.9016 19.5403 19.8733C19.4401 19.8451 19.3466 19.7971 19.2653 19.7321C19.1845 19.6676 19.1174 19.5876 19.0678 19.4969C17.6115 16.9814 15.0408 15.4821 12.1905 15.4821C9.34025 15.4821 6.76958 16.9814 5.31327 19.497C5.2637 19.5876 5.19658 19.6676 5.11581 19.7321C5.03449 19.7971 4.94098 19.8451 4.8408 19.8733C4.74062 19.9016 4.6358 19.9095 4.53252 19.8965C4.42924 19.8836 4.3296 19.8501 4.23946 19.7981C4.14933 19.746 4.07054 19.6764 4.00774 19.5934M19.8299 19.7477L4.00774 19.5934C4.00774 19.5934 4.00774 19.5934 4.00774 19.5934M19.8299 19.7477L19.8485 19.8965C19.9518 19.8836 20.0515 19.8501 20.1416 19.7981C20.2317 19.746 20.3105 19.6764 20.3733 19.5934C20.4361 19.5104 20.4817 19.4157 20.5073 19.3148C20.5328 19.2139 20.538 19.1089 20.5223 19.006C20.5068 18.9037 20.4711 18.8056 20.4172 18.7173C19.2561 16.7108 17.4945 15.2444 15.4319 14.4928C16.3976 13.8444 17.1488 12.9198 17.5849 11.8363C18.0604 10.655 18.135 9.35027 17.7972 8.12246C17.4594 6.89466 16.7279 5.81168 15.715 5.03985C14.7022 4.26801 13.464 3.85 12.1905 3.85C10.9171 3.85 9.67889 4.26801 8.66602 5.03985C7.65316 5.81168 6.92167 6.89466 6.58387 8.12246C6.24607 9.35027 6.32065 10.655 6.79615 11.8363C7.23224 12.9197 7.98344 13.8444 8.94902 14.4927C6.8865 15.2437 5.12493 16.7101 3.96382 18.7174C3.90999 18.8056 3.87427 18.9038 3.85873 19.006C3.84309 19.1089 3.84821 19.2139 3.87381 19.3148C3.8994 19.4157 3.94494 19.5104 4.00774 19.5934M19.8299 19.7477L4.00774 19.5934M7.93443 9.66713C7.93443 8.82535 8.18405 8.00248 8.65171 7.30256C9.11938 6.60265 9.78409 6.05714 10.5618 5.735C11.3395 5.41287 12.1953 5.32858 13.0209 5.49281C13.8465 5.65703 14.6048 6.06238 15.2 6.65761C15.7953 7.25284 16.2006 8.0112 16.3649 8.8368C16.5291 9.66241 16.4448 10.5182 16.1227 11.2959C15.8005 12.0736 15.255 12.7383 14.5551 13.2059C13.8552 13.6736 13.0324 13.9232 12.1907 13.9232C11.0622 13.922 9.98034 13.4732 9.1824 12.6753C8.38449 11.8774 7.93568 10.7955 7.93443 9.66713Z" fill="#333333" stroke="#333333" stroke-width="0.3"/>
</svg>
